<?xml version="1.0" encoding="UTF-8" standalone="no"?>
<!-- Generator: Adobe Illustrator 14.0.0, SVG Export Plug-In . SVG Version: 6.00 Build 43363)  -->
<svg
   xmlns:dc="http://purl.org/dc/elements/1.1/"
   xmlns:cc="http://creativecommons.org/ns#"
   xmlns:rdf="http://www.w3.org/1999/02/22-rdf-syntax-ns#"
   xmlns:svg="http://www.w3.org/2000/svg"
   xmlns="http://www.w3.org/2000/svg"
   xmlns:sodipodi="http://sodipodi.sourceforge.net/DTD/sodipodi-0.dtd"
   xmlns:inkscape="http://www.inkscape.org/namespaces/inkscape"
   version="1.1"
   id="Japan"
   x="0px"
   y="0px"
   width="503.221px"
   height="358.885px"
   viewBox="0 0 503.221 358.885"
   enable-background="new 0 0 503.221 358.885"
   xml:space="preserve"
   sodipodi:version="0.32"
   inkscape:version="0.46"
   sodipodi:docname="H1N1_East_Asia_map.svg"
   inkscape:output_extension="org.inkscape.output.svg.inkscape"><metadata
   id="metadata141"><rdf:RDF><cc:Work
       rdf:about=""><dc:format>image/svg+xml</dc:format><dc:type
         rdf:resource="http://purl.org/dc/dcmitype/StillImage" /></cc:Work></rdf:RDF></metadata><defs
   id="defs139"><inkscape:perspective
     sodipodi:type="inkscape:persp3d"
     inkscape:vp_x="0 : 179.4425 : 1"
     inkscape:vp_y="0 : 1000 : 0"
     inkscape:vp_z="503.22101 : 179.4425 : 1"
     inkscape:persp3d-origin="251.6105 : 119.62834 : 1"
     id="perspective143" /></defs><sodipodi:namedview
   inkscape:window-height="480"
   inkscape:window-width="640"
   inkscape:pageshadow="2"
   inkscape:pageopacity="0.0"
   guidetolerance="10.0"
   gridtolerance="10.0"
   objecttolerance="10.0"
   borderopacity="1.0"
   bordercolor="#666666"
   pagecolor="#ffffff"
   id="base"
   showgrid="false" />
<path
   fill="#C9CACB"
   stroke="#000000"
   stroke-width="0.5"
   d="M0.25,0.25"
   id="path3"
   style="fill:#000000;stroke-width:0.99999998;stroke-miterlimit:4;stroke-dasharray:none" />
<path
   stroke="#FFFFFF"
   d="M315.085,87.45c-0.224-0.273-0.432-0.556-0.61-0.86c-0.479-0.42-0.888-0.907-1.219-1.443  c-0.605-0.41-1.198-0.837-1.75-1.307c-0.965-0.281-1.77-0.762-2.435-1.368c-0.204-0.136-0.397-0.282-0.58-0.438  c-0.722-0.424-1.326-0.966-1.809-1.602c-0.779-0.016-1.633-0.059-2.396,0.136c-0.996,0.671-1.864,1.478-2.494,2.542  c-0.119,0.201-0.308,0.26-0.485,0.23c-0.025,0.05-0.053,0.102-0.082,0.15c-0.021,0.084-0.069,0.156-0.135,0.217  c-0.1,0.151-0.201,0.299-0.314,0.442c-0.398,0.506-1.104-0.207-0.707-0.707c0.023-0.031,0.046-0.065,0.068-0.097  c-0.304-0.53-0.596-1.105-1.023-1.524c-0.594-0.576-1.346-0.605-2.133-0.55c-0.006,0-0.01-0.002-0.015-0.002  c-1.106,0.363-2.216,0.719-3.405,0.773c-0.223,0.133-0.471,0.212-0.727,0.221c-0.285,0.14-0.574,0.281-0.88,0.371  c-0.715,0.211-1.724-0.248-1.845-1.047c-0.002-0.016-0.002-0.021-0.004-0.033c-0.01-0.018-0.02-0.03-0.031-0.057  c-0.105-0.208-0.191-0.424-0.278-0.64c-0.062-0.154-0.08-0.314-0.071-0.472c-0.119-0.047-0.219-0.134-0.278-0.243  c-0.267-0.335-0.054-0.92,0.401-0.804c0.287-0.203,0.601-0.359,0.924-0.496c0.115-0.166,0.254-0.315,0.444-0.41  c0.064-0.032,0.124-0.073,0.188-0.107c-0.022-0.286,0.037-0.573,0.213-0.815c0.064-0.089,0.115-0.189,0.175-0.283  c-0.048-0.387,0.037-0.789,0.252-1.109c-0.003-0.901,0.413-1.745,0.983-2.523c0.271-0.784,0.636-1.542,1.117-2.17  c0.031-0.159,0.084-0.32,0.185-0.486c1.146-1.892,1.426-4.16,2.606-6.049c0.037-0.059,0.08-0.105,0.121-0.157  c-0.68-0.667-1.324-1.369-1.897-2.13c-0.116,0.008-0.233,0.01-0.351,0.019c-0.006,0.002-0.017,0.007-0.021,0.009  c-0.141,0.067-0.273,0.139-0.4,0.224c-0.02,0.031-0.199,0.195-0.205,0.202c-0.287,0.318-0.701,0.451-1.111,0.43  c-0.295,0.174-0.657,0.254-1.078,0.165c-1.563-0.332-3.116-0.715-4.467-1.607c-1.422-0.939-2.564-1.902-4.133-2.361  c-0.035-0.006-0.07-0.005-0.104-0.01c-1.386,0.691-2.854,1.231-4.396,1.565c-1,0.718-2.071,1.335-3.197,1.848  c-0.014,0.147-0.063,0.301-0.17,0.458c-0.562,0.811-0.75,2.24-1.852,2.545c-0.726,0.202-1.304-0.197-2.021-0.167  c-0.568,0.024-1.135,0.074-1.698,0.13c-0.108,0.198-0.284,0.365-0.556,0.454c-0.692,0.228-1.395,0.441-2.1,0.633  c-0.654,0.355-1.322,0.638-2.025,0.706c-1.49,0.479-3.131,0.693-4.467,0.182c-1.492-0.068-3.014-0.357-3.59-1.312  c-0.156-0.087-0.306-0.2-0.421-0.355c-0.223-0.3-0.584-0.4-0.917-0.522c-0.441-0.163-0.849-0.34-1.222-0.632  c-0.388-0.302-0.658-0.671-0.882-1.072c-1.409-0.667-2.728-1.504-3.927-2.482c-0.659-0.467-1.329-0.918-1.978-1.4  c-0.11-0.082-0.206-0.177-0.284-0.283c-0.151-0.106-0.287-0.232-0.435-0.342c-0.144-0.013-0.288-0.045-0.429-0.105  c-1.441-0.619-2.714-1.547-3.592-2.861c-0.033-0.049-0.055-0.098-0.078-0.146c-0.706-0.305-1.398-0.636-2.058-1.021  c-1.355-0.16-2.674-0.455-3.935-0.888c-2.117-0.051-4.153-0.464-6.058-1.175c-0.196,0.055-0.394,0.111-0.589,0.165  c-0.14,0.039-0.279,0.078-0.418,0.114c-0.16-0.031-0.329-0.07-0.504-0.112c-0.266,0.032-0.539,0.053-0.826,0.053  c-0.08,0-0.155-0.009-0.233-0.011c-0.593,0.195-1.252,0.307-1.983,0.307c-0.004,0-0.007,0-0.011,0  c-0.515,0.14-1.075,0.222-1.689,0.222c-0.256,0-0.503-0.015-0.742-0.041c-0.373,0.067-0.76,0.115-1.179,0.115  c-0.53,0-1.021-0.061-1.478-0.166c-1.464-0.047-2.645-0.522-3.532-1.273c-1.004-0.583-1.741-1.454-2.202-2.464  c-0.434-0.586-0.727-1.26-0.809-1.985c-0.017-0.145-0.023-0.292-0.014-0.442c0.034-0.006,0.056-0.019,0.087-0.025  c-0.027-0.493,0.079-0.986,0.303-1.417c0.024-0.274,0.062-0.548,0.135-0.813c0.012-0.044,0.035-0.083,0.049-0.125  c0.043-0.468,0.139-0.928,0.277-1.374c-0.041-0.178-0.079-0.356-0.13-0.529c-0.195-0.372-0.397-0.74-0.626-1.092  c-0.256-0.23-0.566-0.444-0.897-0.654c-0.915-0.304-1.808-0.799-2.643-1.371c-0.224-0.102-0.444-0.211-0.663-0.325  c-1.487-0.472-2.908-1.72-3.632-3.092c-0.974-0.146-1.924-0.222-2.858-0.609c-1.116-0.216-2.2-0.856-3.061-1.511  c-0.576-0.439-1.139-0.898-1.677-1.384c-0.136,0.034-0.273,0.067-0.423,0.081c-1.187,0.107-2.429,0.179-3.605,0.453  c-0.637,0.267-1.24,0.622-1.898,0.851c-0.083,0.069-0.163,0.141-0.254,0.202c-0.737,0.49-1.505,1.166-2.267,1.892  c-0.522,0.635-1.09,1.224-1.648,1.824c0.011,0.04,0.029,0.071,0.039,0.112c0.216,0.9,0.294,1.823,0.386,2.742  c0.271,1.005,0.497,2.023,0.588,3.084c0.077,0.237,0.098,0.479,0.085,0.717c0.137,0.168,0.22,0.373,0.192,0.595  c-0.105,0.857-0.032,1.74-0.349,2.561c-0.151,0.391-0.465,0.68-0.858,0.725c-0.335,0.376-0.804,0.674-1.315,0.609  c-0.219-0.028-0.418-0.084-0.606-0.16c-0.134,0.092-0.287,0.166-0.479,0.187c-0.004,0-0.008,0-0.012,0  c-0.207,0.508-0.79,0.905-1.432,0.594c-2.23-1.083-4.344-2.375-6.467-3.651c-0.101-0.061-0.174-0.133-0.238-0.209  c-0.229-0.09-0.464-0.167-0.698-0.246c-0.374,0.058-0.761,0.097-1.174,0.097c-1.814,0-3.257-0.571-4.341-1.474  c-1.452-0.025-2.72-0.779-2.969-2.353c-0.134-0.849,0.001-1.718,0.269-2.547c-0.015-0.042-0.02-0.084-0.03-0.128  c-0.011-0.052-0.022-0.104-0.026-0.157c-0.006-0.067-0.007-0.131-0.001-0.198c-0.627-0.397-1.273-0.795-1.951-1.121  c-0.115-0.05-0.228-0.107-0.342-0.16c-0.237-0.102-0.478-0.197-0.725-0.272c-0.757-0.232-1.566-0.298-2.313-0.55  c-1.13-0.382-1.574-1.157-1.615-2.199c-0.088-0.077-0.17-0.16-0.256-0.24c-0.236-0.003-0.416-0.086-0.563-0.2  c-0.149,0.116-0.326,0.204-0.567,0.204c-0.026,0-0.043-0.012-0.068-0.014c-0.128,0.068-0.272,0.118-0.453,0.118  c-0.595,0-0.902-0.428-0.948-0.886c-0.158,0.006-0.315,0.02-0.474,0.024c-1.041,0.232-2.113,0.363-3.206,0.412  c-1.851,0.735-3.836,1.177-5.899,1.287c-1.365,0.468-2.771,0.792-4.284,0.832c-0.537,0.014-0.836-0.328-0.926-0.729  c-0.104-0.011-0.208-0.023-0.313-0.034c-0.012,0.184-0.08,0.353-0.178,0.5c-0.016,0.228-0.092,0.448-0.275,0.597  c-0.314,0.255-0.485,0.521-0.577,0.915c-0.075,0.318-0.255,0.517-0.475,0.621c-0.121,0.353-0.423,0.635-0.907,0.635h-0.104  c-0.082,0-0.144-0.026-0.215-0.041c-0.068,0.013-0.125,0.041-0.203,0.041c-0.301,0-0.521-0.115-0.677-0.283  c-0.229-0.087-0.386-0.252-0.483-0.454c-0.562,0.146-1.16,0.243-1.823,0.243c-0.551,0-1.067-0.054-1.55-0.151  c-0.728-0.011-1.396-0.111-2.005-0.29c-0.062,0.001-0.117,0.011-0.179,0.011c-0.878,0-1.664-0.143-2.369-0.385  c-0.233,0.523-0.517,1.073-0.948,1.428c-0.49,0.404-1.001,0.556-1.509,0.464c0.006,0.232-0.064,0.472-0.265,0.688  c-0.667,0.717-1.478,1.15-2.284,1.637c0.009,0.007,0.018,0.014,0.027,0.021c1.318,0.687,1.579,2.521,0.813,3.69  c0.627,0.176,1.086,0.569,1.364,1.072c0.268,0.299,0.455,0.661,0.552,1.054c0.414,0.42,0.647,0.992,0.698,1.584  c0.066,0.157,0.123,0.319,0.159,0.487c0.117,0.238,0.198,0.495,0.241,0.76c0.282,0.416,0.426,0.919,0.441,1.428  c0.249,0.243,0.427,0.542,0.549,0.866c0.427,0.379,0.693,0.903,0.783,1.465c0.071,0.058,0.134,0.127,0.198,0.196  c0.406,0.058,0.741,0.206,1.019,0.409h1.201c0.41,0,0.893,0.302,0.964,0.734c0.113,0.683,0.481,1.099,0.995,1.54  c0.035,0.03,0.045,0.065,0.075,0.096c0.741,0.125,1.435,0.446,1.757,1.189c0.318,0.731,0.263,1.558,0.407,2.285  c0.064,0.322-0.017,0.595-0.173,0.804v0.606c0.113,0.688,0.312,1.361,0.593,2.002c0.041,0.092,0.06,0.188,0.08,0.283  c0.007,0.012,0.018,0.018,0.024,0.03c0.387,0.713,0.759,1.436,1.185,2.127c0.361,0.586,0.758,1.335,1.377,1.687  c0.374,0.212,0.496,0.545,0.471,0.872c0.479,0.657-0.003,1.463-0.626,1.608c-0.002,0.048,0.008,0.095,0.005,0.143  c0.541,0.746,0.953,1.629,0.66,2.554c-0.339,1.069-1.405,1.464-2.422,1.629c-0.113,0.304-0.257,0.596-0.434,0.868  c-0.034,0.392-0.095,0.78-0.218,1.15c0.034,0.355,0.043,0.713,0.003,1.068c0.348,0.532,0.588,1.134,0.698,1.769  c0.321,0.337,0.597,0.718,0.803,1.14c0.375,0.283,0.748,0.569,1.111,0.867c0.729,0.147,1.331,0.465,1.824,0.883  c0.305,0.105,0.608,0.212,0.913,0.32c0.659,0.09,1.271,0.33,1.813,0.679c0.098,0.039,0.195,0.076,0.292,0.116  c0.483,0.014,0.916,0.101,1.318,0.228c1.117,0.099,1.981,0.559,2.614,1.212c0.306-0.002,0.612,0.12,0.816,0.462  c1.143,1.912,2.101,3.945,3.409,5.746c0.362,0.335,0.737,0.657,1.126,0.966c0.158,0.076,0.302,0.185,0.42,0.33  c0.419,0.324,0.843,0.646,1.265,0.974c0.09,0.028,0.177,0.063,0.274,0.078c0.483,0.079,0.75,0.614,0.708,1.072  c0.229,0.324,0.249,0.79,0.056,1.141c-0.018,0.09-0.058,0.172-0.096,0.254c0.177,0.205,0.248,0.484,0.23,0.758  c0.97,0.836,1.483,2.085,1.511,3.365c0.431,0.759,0.646,1.644,0.625,2.531c0.016,0.077,0.039,0.151,0.051,0.229  c0.243,0.364,0.435,0.761,0.564,1.184c0.635,0.707,1.014,1.618,1.122,2.573c0.612,0.661,0.994,1.507,1.131,2.405  c0.587,0.676,0.941,1.533,1.054,2.433c0.437,0.512,0.751,1.118,0.919,1.776c0.266,0.164,0.514,0.346,0.728,0.559  c0.699,0.227,1.28,0.6,1.724,1.089c0.476-0.179,1.006-0.29,1.611-0.29c0.236,0,0.448,0.037,0.665,0.066  c0.026-0.003,0.048-0.013,0.075-0.015c0.435-0.28,0.939-0.489,1.523-0.59c0.589-0.314,1.292-0.503,2.118-0.503  c1.093,0,1.979,0.32,2.66,0.838c0.038,0.018,0.078,0.031,0.115,0.05c0.507,0.072,0.963,0.218,1.367,0.423  c0.095,0.001,0.189,0.001,0.296,0.034c0.348,0.108,0.69,0.243,1.033,0.381c0.191-0.021,0.373-0.057,0.579-0.057  c0.781,0,1.439,0.182,2.008,0.466c0.166-0.016,0.319-0.049,0.495-0.049c0.661,0,1.237,0.129,1.748,0.336  c0.08-0.005,0.15-0.024,0.234-0.024c0.476,0,0.897,0.079,1.295,0.19c0.282-0.052,0.578-0.085,0.896-0.085  c0.639,0,1.194,0.125,1.692,0.318c0.028,0,0.052-0.005,0.081-0.005c0.7,0,1.308,0.14,1.839,0.371  c0.231,0.027,0.456,0.062,0.666,0.118c0.461,0.064,0.891,0.172,1.262,0.353c0.628,0.136,1.167,0.392,1.616,0.735  c0.415,0.197,0.78,0.45,1.088,0.755c0.277,0.206,0.549,0.424,0.81,0.655c0.207,0.156,0.415,0.317,0.623,0.492  c0.107,0.089,0.173,0.188,0.228,0.287c0.206,0.191,0.408,0.377,0.607,0.548c0.287,0.246,0.352,0.537,0.299,0.81  c0.144,0.131,0.28,0.271,0.438,0.39c0.195,0.147,0.338,0.339,0.42,0.548c0.171-0.063,0.364-0.092,0.592-0.023  c0.642,0.194,1.304,0.182,1.953,0.33c0.721,0.166,1.335,0.52,1.826,1.074c0.13,0.147,0.193,0.304,0.228,0.462  c0.542,0.186,1.083,0.374,1.62,0.578c0.917,0.349,1.771,0.932,2.665,1.384c0.085,0.005,0.167,0,0.261,0.031  c0.259,0.086,0.504,0.163,0.777,0.173c0.29,0.01,0.505,0.128,0.664,0.291c0.161,0.007,0.324,0.024,0.483,0.022  c0.518-0.009,0.817,0.311,0.919,0.694c0.017,0.021,0.036,0.04,0.051,0.063c0.661,0.437,1.258,0.975,2.007,1.261  c0.458,0.175,0.66,0.567,0.671,0.959c0.169,0.13,0.33,0.271,0.506,0.392c0.014,0.009,0.022,0.02,0.036,0.03  c0.098,0.017,0.196,0.04,0.294,0.042c0.327,0.008,0.569,0.145,0.73,0.341c0.054,0.009,0.109,0.014,0.164,0.024  c0.082-0.021,0.157-0.052,0.254-0.052c0.031,0,0.052,0.014,0.082,0.017c0.103-0.011,0.202-0.009,0.296,0.009  c0.879-0.561,1.919-0.851,2.99-0.94c0.275-0.052,0.557-0.083,0.842-0.101c0.135-0.077,0.29-0.131,0.483-0.131h0.677  c1.655-0.693,3.579-0.491,5.322-0.108c0.268,0.001,0.536,0.002,0.804,0.003c0.824-0.003,1.613-0.055,2.391-0.146  c0.822-0.191,1.623-0.452,2.413-0.755c0.226-0.208,0.445-0.414,0.65-0.575c0.895-0.7,1.907-1.167,3.066-1.026  c0.132-0.111,0.253-0.243,0.345-0.333c0.369-0.36,0.811-0.342,1.156-0.144c0.076-0.009,0.149-0.022,0.233-0.009  c1.538,0.245,3.098,0.257,4.643,0.439c0.139-0.094,0.302-0.164,0.516-0.162c1.976,0.012,3.778-0.055,5.65-0.762  c1.383-0.522,2.665-0.911,4.154-0.907c0.061,0,0.104,0.024,0.157,0.032c1.267-0.455,2.239-1.569,3.209-2.608  c0.026-0.053,0.059-0.105,0.099-0.156c0.281-0.36,0.577-0.672,0.881-0.964c0.104-0.107,0.215-0.202,0.322-0.301  c0.053-0.044,0.104-0.093,0.153-0.135c0.12-0.106,0.233-0.223,0.36-0.319c0.229-0.227,0.465-0.442,0.726-0.635  c0.793-0.585,1.713-0.882,2.666-1.068c0.676-0.401,1.366-0.773,2.093-1.088c0.063-0.071,0.131-0.137,0.189-0.209  c0.222-0.265,1.015-1.117,0.812-1.518c-0.085-0.167-0.063-0.324,0.003-0.455c-0.47-0.716-1.872-1.297-2.279-1.878  c-0.692-0.982-0.871-2.182-1.013-3.35c-0.178-0.254-0.139-0.676,0.251-0.788c0.637-0.182,0.993-0.614,1.255-1.128  c0.138-0.737,0.462-1.521,0.935-2.18c0.257-0.467,0.57-0.885,1.029-1.23c0.161-0.122,0.317-0.112,0.444-0.04  c0.429-0.194,0.896-0.289,1.399-0.22c0.229,0.031,0.336,0.176,0.354,0.344c0.638,0.089,1.234,0.306,1.742,0.828  c0.04,0.041,0.062,0.085,0.083,0.129c0.13,0.068,0.262,0.132,0.391,0.205c0.73,0.39,1.461,0.785,2.229,1.102  c0.178,0.073,0.261,0.216,0.297,0.369c0.256,0.097,0.511,0.197,0.761,0.307c0.093,0.04,0.147,0.097,0.19,0.16  c0.449,0.178,0.9,0.359,1.343,0.558c0.549,0.135,1.12,0.179,1.731,0.067c0.063-0.012,0.121-0.006,0.178,0.003  c0.1-0.109,0.199-0.216,0.299-0.327c0.162-0.229,0.314-0.468,0.479-0.698c0.096-0.135,0.224-0.2,0.354-0.216  c0.005-0.005,0.009-0.01,0.016-0.015c1.285-1.822,3.11-3.348,4.715-4.772c0.151-0.135,0.323-0.149,0.479-0.102  c0.168-0.089,0.375-0.084,0.543,0.102c0.161,0.178,0.33,0.339,0.508,0.482c0.035,0.005,0.067,0.001,0.105,0.015  c1.043,0.372,2.131,0.198,3.205,0.086c0.104-0.011,0.188,0.015,0.259,0.053c0.562-0.146,1.081-0.377,1.589-0.638l0.003-0.002  c0.054-0.039,0.11-0.063,0.169-0.091c0.229-0.292,0.564-0.503,1.039-0.523c0.008-0.004,0.018-0.007,0.023-0.011  c0.201-0.309,0.521-0.541,0.968-0.601c0.241-0.265,0.594-0.44,1.061-0.44c0.082,0,0.156,0.013,0.231,0.023  c0.063-0.007,0.117-0.023,0.184-0.023c0.107-0.062,0.213-0.127,0.346-0.16c0.103-0.254,0.267-0.481,0.5-0.641  c-0.033-0.124-0.058-0.251-0.059-0.382c-0.188-0.302-0.254-0.669-0.213-1.025c0.014-0.119,0.039-0.236,0.076-0.349  c0.068-0.061,0.137-0.134,0.205-0.201c-0.045-0.618,0.244-1.257,0.856-1.508c0.158-0.372,0.466-0.672,0.909-0.788  c0.2-0.347,0.553-0.598,1.035-0.658c0.238-0.322,0.615-0.546,1.145-0.546h0.207c0.021,0,0.036,0.004,0.057,0.006  c0.211-0.131,0.468-0.215,0.779-0.215c0.037,0,0.069,0.008,0.106,0.011c0.021-0.023,0.039-0.043,0.058-0.073  c0.146-0.018,0.293-0.024,0.435-0.026c0.258-0.004,0.478,0.049,0.667,0.138c0.029-0.002,0.058-0.009,0.089-0.011  c0.233-0.2,0.501-0.354,0.802-0.469c-0.029-0.323,0.204-0.657,0.586-0.506c0.393,0.153,0.641,0.391,0.786,0.704  c0.045-0.003,0.086-0.012,0.132-0.015c0.241-0.188,0.493-0.365,0.771-0.516c1.058-1.873,2.975-3.244,5.79-3.244  c0.249,0,0.485,0.015,0.723,0.035c0.189-0.013,0.372-0.035,0.57-0.035c0.019,0,0.034,0.002,0.053,0.002  c0.746-0.275,1.588-0.434,2.532-0.434c0.223,0,0.437,0.015,0.646,0.032c0.479-0.213,0.995-0.379,1.563-0.48  C314.761,89.594,314.799,88.495,315.085,87.45z"
   id="path5"
   style="fill:#000000;stroke-width:0.99999998;stroke-miterlimit:4;stroke-dasharray:none" />
<path
   fill="#EDDF7B"
   stroke="#54C3F1"
   stroke-width="0.5"
   d="M296.317,64.74"
   id="path7"
   style="fill:#000000;stroke-width:0.99999998;stroke-miterlimit:4;stroke-dasharray:none" />
<g
   id="XMLID_9_"
   style="fill:#000000;stroke-width:0.99999998;stroke-miterlimit:4;stroke-dasharray:none">
	<g
   id="g10"
   style="fill:#000000;stroke-width:0.99999998;stroke-miterlimit:4;stroke-dasharray:none">
		<line
   fill="none"
   stroke="#54C3F1"
   stroke-width="0.5"
   x1="296.535"
   y1="64.763"
   x2="296.828"
   y2="64.775"
   id="line12"
   style="fill:#000000;stroke-width:0.99999998;stroke-miterlimit:4;stroke-dasharray:none" />
	</g>
</g>
<path
   fill="#C9CACB"
   stroke="#000000"
   stroke-width="0.5"
   d="M394.002,199.765"
   id="path14"
   style="fill:#000000;stroke-width:0.99999998;stroke-miterlimit:4;stroke-dasharray:none" />
<path
   fill="#C9CACB"
   stroke="#000000"
   stroke-width="0.5"
   d="M402.863,204.313"
   id="path16"
   style="fill:#000000;stroke-width:0.99999998;stroke-miterlimit:4;stroke-dasharray:none" />
<path
   fill="#C9CACB"
   stroke="#000000"
   stroke-width="0.5"
   d="M379.576,211.644"
   id="path18"
   style="fill:#000000;stroke-width:0.99999998;stroke-miterlimit:4;stroke-dasharray:none" />
<path
   fill="#C9CACB"
   stroke="#000000"
   stroke-width="0.5"
   d="M440.171,160.11"
   id="path20"
   style="fill:#000000;stroke-width:0.99999998;stroke-miterlimit:4;stroke-dasharray:none" />
<path
   stroke="#FFFFFF"
   stroke-width="0.5"
   d="M323.566,286.662c1.269-1.579,2.082-1.815,4.085-2.683  c1.147-0.496,1.724,1.854,3.313,1.633c0.604,0.768-0.408,1.611-0.563,2.384l-0.607,2.173c0,0,0.418,2.053,0.341,2.743  c-0.075,0.685-0.931,2.594-0.931,2.594l-0.693,3.017c-0.59,2.018-0.204,2.617-1.529,4.338l-0.854,2.131  c-1.043,1.742-3.597,2.729-3.682,5.01l0.06,2.542c0.027,0.675-0.37,1.483-1.298,1.233c-0.134-0.764-0.537-1.689-0.951-2.473  c-0.173-0.318-0.341-0.611-0.495-0.856c-0.563-0.89-0.767-0.774-1.402-1.593c-0.979-1.258-1.854-2.545-2.017-4.229l-0.503-5.343  c0.211-1.01,0.53-1.993,0.922-2.951c0.39-0.947,2.02-2.611,2.529-3.501c0.476-0.834,0.833-1.2,1.389-1.979  c0.646-0.93,1.001-0.91,1.691-1.771L323.566,286.662z"
   id="path22"
   style="fill:#000000;stroke-width:0.99999998;stroke-miterlimit:4;stroke-dasharray:none" />
<path
   fill="#B3B3B3"
   stroke="#000000"
   stroke-width="0.5"
   d="M236.763,333.862"
   id="path24"
   style="fill:#000000;stroke-width:0.99999998;stroke-miterlimit:4;stroke-dasharray:none" />
<path
   fill="#B3B3B3"
   stroke="#000000"
   stroke-width="0.5"
   d="M265.838,309.636c-0.532,0.027-0.532,0.027-0.532,0.027  s-0.261,0.146-0.227,0.813c0.033,0.666,0.174,0.793,0.84,0.76c0.667-0.031,1.699-0.756,1.286-1.002  c-0.414-0.242-0.414-0.242-0.414-0.242L265.838,309.636z"
   id="path26"
   style="fill:#000000;stroke-width:0.99999998;stroke-miterlimit:4;stroke-dasharray:none" />
<g
   id="g28"
   style="fill:#000000;stroke-width:0.99999998;stroke-miterlimit:4;stroke-dasharray:none">
	<g
   id="XMLID_8_"
   style="fill:#000000;stroke-width:0.99999998;stroke-miterlimit:4;stroke-dasharray:none">
		<g
   id="g31"
   style="fill:#000000;stroke-width:0.99999998;stroke-miterlimit:4;stroke-dasharray:none">
			<path
   stroke="#FFFFFF"
   stroke-width="0.5"
   d="M238.443,326.601c0.258,1.422,0.038,0.817-0.628,1.819     c-0.566,0.522,0.053,1.114-0.459,0.8c0.015,0.914-1.305,1.487-2.655,3.734c-0.818,1.361-0.836,1.417-2.275,3.146     c-1.124,1.346-1.639,1.631-3.149,2.246c-2.971,1.189-5.62,1.791-8.943,0.104c-3.226-0.145-2.987-2.91-3.217-5.044l0.219-2.14     c0.052-0.51-0.195-0.791-0.11-1.185c1.61-1.649,1.659-1.813,3.528-3.001c0.063-0.184,1.126-0.055,1.08-0.229     c-0.156-0.16,1.879-0.59,1.785-0.802l5.7-0.388c1.192,0.429,1.869-0.867,2.945-0.938c0,0,1.302,1.234,1.748,1.006     c0.513-0.254,1.359-0.58,1.506-0.885c0.253-0.037,0.579-0.146,0.883-0.248C237.142,325.358,237.003,326.709,238.443,326.601z"
   id="path33"
   style="fill:#000000;stroke-width:0.99999998;stroke-miterlimit:4;stroke-dasharray:none" />
		</g>
		<g
   id="g35"
   style="fill:#000000;stroke-width:0.99999998;stroke-miterlimit:4;stroke-dasharray:none">
			<path
   stroke="#FFFFFF"
   stroke-width="0.5"
   d="M234.01,325.739c0.513-0.256,1.359-0.58,1.506-0.887     c0.253-0.035,0.579-0.146,0.883-0.248c0.743,0.754,0.604,2.104,2.044,1.994c0.258,1.424,0.038,0.816-0.628,1.818     c-0.566,0.521,0.053,1.114-0.459,0.799c0.015,0.915-1.305,1.488-2.655,3.735c-0.818,1.36-0.836,1.417-2.275,3.146     c-1.124,1.344-1.639,1.629-3.149,2.244c-2.971,1.192-5.62,1.793-8.943,0.105c-3.226-0.143-2.987-2.91-3.217-5.045l0.219-2.139     c0.052-0.51-0.195-0.789-0.11-1.185c1.61-1.647,1.659-1.813,3.528-3.001c0.063-0.186,1.126-0.057,1.08-0.229     c-0.156-0.16,1.879-0.593,1.785-0.802l5.7-0.389c1.192,0.429,1.869-0.867,2.945-0.938     C232.262,324.733,233.564,325.969,234.01,325.739z"
   id="path37"
   style="fill:#000000;stroke-width:0.99999998;stroke-miterlimit:4;stroke-dasharray:none" />
		</g>
	</g>
	<g
   id="XMLID_7_"
   style="fill:#000000;stroke-width:0.99999998;stroke-miterlimit:4;stroke-dasharray:none">
		<g
   id="g40"
   style="fill:#000000;stroke-width:0.99999998;stroke-miterlimit:4;stroke-dasharray:none">
			<path
   stroke="#FFFFFF"
   d="M404.554,74.165c0.174-0.343,0.076-1.63,0.303-1.98c0.376-0.573-0.032-0.108-0.694-1.484     c-1.254,0.438-0.649,0.56-2.063,1.025c-0.813,0.268-1.645,0.548-2.459,0.848c-0.857,0.324-3.842,2.14-4.663,2.522     c-1.991,2.127-2.261,1.993-3.946,3.713c-1.325,0.566-3.182,1.032-4.956,1.115c-1.732,0.076-3.396-0.197-4.446-1.076     c-0.955-0.809-1.4-2.116-0.917-4.122c-0.969-1.491-1.49-3.007-1.121-4.835c-0.438-0.051-0.827-0.962-1.241-1.051     c-0.271-0.058-0.58,0.72-0.835,0.643c-0.517-0.139-1-0.318-1.466-0.522c-0.516-0.229-1.007-0.503-1.465-0.809     c-0.479-0.325-0.924-0.695-1.338-1.115c-0.415-0.415-0.795-0.879-1.146-1.395c-0.887,0.752-1.699,0.783-2.504,0.548     c-0.624-0.184-1.248-0.529-1.886-0.828c-1.063-0.49-2.178-0.84-3.491-0.089c-1.114,0.153-2.116-0.644-3.262-0.624     c-0.159-0.16-0.317-0.311-0.586-0.414c-0.707-1.351-1.063-2.906-0.363-4.345c-1.729-0.421-1.104-2.038-1.578-3.134     c-0.331-0.771-0.707-1.505-1.077-2.236c-0.444-0.885-0.893-1.772-1.262-2.758c-0.083-0.237,0.262-1.014,0.159-1.473     c-0.248-1.049-1.293-1.317-1.81-2.4c-1.385-2.918-3-5.491-4.159-7.421c-2.144-1.766-5.365-5.332-7.646-5.932     c-2.95-0.503-4.93-3.49-8.023-3.497c-6.453,2.001-13.575,0.765-18.094,6.816c-0.255,0.524-0.188,1.154-0.201,1.72     c0.111,0.187,0.246,0.376,0.284,0.625c0.128,0.065,0.257,0.128,0.458,0.097c0.445-0.351,1.024-0.364,1.497-0.638     c0.385-0.083,0.978-0.018,1.354,0.352c-0.895,1.948,0.877,4.484-0.646,6.427c-4.918,2.803-4.317,9.598-8.467,13.243     c-0.075,0.223-0.138,0.479-0.075,0.758c0.347,0.192,0.926,0.44,1.293,0.637c-0.339,0.949-0.88,1.981-1.525,2.822     c-0.766,0.293-1.587,0.267-2.402,0.236c-3.063,3.829-7.37,1.593-11.236,0.663l-0.293-0.014     c-1.502,4.547-4.858,8.345-5.248,13.338c-0.563,0.707-1.377,0.893-2.166,1.21c-0.408,1.358,0.746,2.834,1.859,3.479     c2.465,0.337,4.911-1.593,7.536-0.956c0.771,0.675,1.235,1.56,1.489,2.516c0.218,0.083,0.479,0.141,0.771,0.103     c1.65-1.662,3.153-4.14,5.835-3.701c3.242,4.097,8.437,3.664,7.981,9.664c-4.898,1.127-8.261-0.529-12.44,4.465     c-0.438-0.101-0.623-0.529-0.863-0.86c-0.107,0.019-0.226,0.044-0.377,0.121c-0.151,0.287-0.196,0.707-0.285,1.07     c-3.265-0.249-8.31,1.631-7.258,5.918c-0.203,0.16-0.369,0.313-0.617,0.542c-3.114,0.414-5.969,4.248-9.646,1.401     c-2.472,1.898-4.815,4.261-7.097,6.389c-0.301,0.082-0.727,0.031-1.096-0.077c-4.064-1.465-10.365-8.104-11.557,0.089     c-0.428,0.6-1.384,0.662-1.594,1.414c0.414,1.995,0.752,4.434,3.128,5.224c0.082,0.12,0.173,0.241,0.261,0.356     c0.031,0.236,0.047,0.504-0.058,0.784c-1.489,1.643-3.204,1.815-5.211,2.771c-2.81,1.338-3,3.146-4.962,4.739     c-1.279,1.044-2.534,0.81-4.209,1.293c-4.268,1.216-7.701,1.796-13.046,0.567c-0.281,0.255-0.574,0.477-0.873,0.701     c-5.09,1.197-2.644,1.846-6.791,2.566c-1.185,0.209-4.415-0.548-5.631-0.229c-2.752,0.726-5.065,0.108-7.288,1.35     c-0.312,0.07-0.733,0.019-1.096-0.089c-0.235-0.293-0.739-0.425-1.159-0.777c-0.057-0.196-0.904-0.955-2.21-1.903     c-1.605-1.159-3.382-1.235-5.752-2.274c-1.121-0.478-2.771-2.249-3.854-2.478c-0.949-0.21-1.872-0.286-2.713-0.197     c-0.414-0.873-0.892-1.625-1.414-2.274c-1.573-1.942-3.618-2.93-5.886-3.504c-1.707-0.434-3.554-0.618-5.421-0.79     c-2.956-0.279-5.975-0.516-8.638-1.631c-4.395-1.834-4.382-0.089-9.198,0.446c-1.555-0.854-2.383-1.994-2.873-3.287     c-0.663-1.757-4.039-8.364-4.319-10.275c-0.14-0.942-0.35-1.859-0.739-2.7c-0.229-0.496-0.522-0.967-0.898-1.401     c-0.127-0.088-0.261-0.171-0.42-0.229c-0.038-0.127-0.064-0.273,0.013-0.459c0.287-0.313,0.79-0.472,1.204-0.688     c0.414-0.217-0.931-0.262-0.975-0.784c-0.721-0.184,0.286-0.669-0.351-1.006c-0.331-0.178-0.657-0.376-0.975-0.586     c-0.491-0.325-0.956-0.687-1.408-1.076c-0.663-0.566-1.287-1.191-1.905-1.834c-0.503-0.535-3.127-6.051-4.79-6.459     c-1.955-0.484-4.803-1.121-7-2.28c-1.376-0.725-2.503-1.669-2.975-2.911c-0.382-0.981-0.35-2.147,0.274-3.555     c1.695-1.032,4.001-2.402,2.039-4.542c2.364-1.282-2.019-4.065-2.777-6.721c-1.077-3.772,0.496-4.651-1.727-7.186     c-1.656,0.624-1.567-1.369-2.312-2.19c-4.905,0.802-4.077-7.58-7.504-9.39c0.764-1.357,0.42-2.172-0.631-3.389     c0.669-0.629,1.905-0.962,1.733-2.108c-0.918-0.121-1.848-0.121-2.746-0.35c-0.185-0.236-0.37-0.459-0.637-0.631l-0.459-0.134     c-0.599-0.006-0.758-0.115-1.344,0.051c-2.02,3.077-5.37,4.472-9.447,2.917c-3.401,2.281-2.191,5.186-3.191,8.708     c-0.261,0.331-2.37,0.815-2.65,1.063c-0.899-0.07-1.466,2.924-2.644,2.835c-1.624-0.114-2.395-1.114-4.115-1.484     c-1.14-0.241-2.255-0.568-3.261-1.006c-0.51-0.224-4.638-0.917-5.09-1.204c-0.949-0.617-1.738-1.382-2.28-2.363     c-5.485,0.922-1.586,1.47-2.376,2.191c-1.503,1.369,0.707,3.191-0.299,4.803c-0.995,1.606-3.377,2.427-3.122,4.714     c0,0-3.376,0.414-4.026-1.032c-3.866-1.09-6.306-0.089-10.147-1.134c-0.114,0.096-0.241,0.172-0.356,0.255     c1.363,5.268-1.535,7.893-2.026,13.358c-0.809,0.738-1.981-0.244-2.739,0.521c0.108,0.452,0.184,1.058,0.006,1.414     c-0.943-0.096-1.79-0.503-2.421,0.548c-0.337,1.052,0.357,0.732-4.968,4.618c-3.16,1.052-9.931,3.173-11.702,4.849     c-2.37-1.287-5.663,1.427-7.275-1.236c-2.229-0.657-3.395,1.879-4.465,3.299c-0.293,0.177-0.599,0.166-0.898,0.191     c-1.267-0.923-2.79-1.465-4.446-1.319c-0.281-0.102-0.466-0.338-0.682-0.542c-0.121-0.681,0.236-1.388,0.038-2.051     c-0.242-0.088-0.426,0.019-0.611,0.102c-1.65,0.962-3.007-0.732-4.498-0.923c-0.102,0.358,0.217,0.669,0,1.172     c-1.682-0.752-2.777,2.121-4.064,0.052c-0.28-0.09-0.548-0.09-0.783-0.052c-3.414,3.058-8.268,6.593-6.924,11.772     c0.141,0.101,0.255,0.16,0.37,0.204c1.675-1.166,2.274-0.039,3.433,1.21c-2.332,3.288-2.561,6.988-3.153,10.976     c-0.586,0.409,0.898,3.39-1.688,2.014c-0.248-0.28-0.496-0.567-0.713-0.86c-0.274-0.083-0.484-0.16-0.688-0.223     c-0.624,0.094-1.338,0.782-1.166,1.445c1.866,1.23,3.389,2.287,5.166,3.548c0.128,0.682-0.222,0.109-0.025,0.759     c0.911,1.726,1.478,4.007,2.236,6.383c0.688,2.165,1.528,4.414,2.917,6.408c0.86,1.235,1.93,2.369,3.306,3.318     c0.968,0.408,1.968,0.593,2.949,0.58c1.287-0.011,2.561-0.363,3.746-1.032c0.312,0.012,0.605,0.032,0.879,0.07     c1.472,0.159,4.625,1.879,5.16,4.134c0.293,1.243,2.555,2.421,0.038,2.976c-0.994,0.216-0.803,1.986-1.223,2.962     c-0.459,1.071-2.255,1.255-2.873,2.351c-1.924,3.408-3.02,3.236-4.969,4.319c-0.617,2.994-0.222,6.35-1.554,9.033     c0.771,4.021-6.096,5.791-5.822,1.172c0.007-0.197-0.051-0.344-0.114-0.49c-1.02-0.193-1.37,1.266-2.217,1.656     c0.522,2.331,0.026,5.465,1.249,8.67c-1.07-0.236-0.185,0.662-0.293,1.006c-0.274,0.835,0.267,2.817,0.325,3.803     c0.083,1.225-0.038,1.007,0.701,2.121c0.657,0.981,0.013-0.427,0.803,0.357c0.79,0.775,1.656,1.4,2.618,1.731     c0.293,4.051,5.433,5.313,4.822,9.587c0.242,0.268,0.503,0.268,0.732,0.286c1.166-0.648,2.319-2.013,3.676-1.949     c1.892,1.474,2.345,1.008,2.975,2.174c0.688,5.134,5.797,8.655,7.619,13.625c0.752,0.279,1.612,0.089,2.332,0.407     c0.204,0.217,0.388,0.458,0.586,0.676c-0.058,2.873,2.318,6.764,5.045,7.159c0.21,0.083,0.35,0.248,0.522,0.383     c0.28,0.752-0.491,1.319-0.351,2.013c2.344,1.918,4.841,2.905,4.797,6.34c0.14,0.006,0.274-0.053,0.401-0.104     c0.184-0.381,0.547-1.088,1.044-0.941c0.407,0.888,0.84,1.752,1.484,2.49c1.128,0.082,1.382-1.197,2.153-1.656     c2.083,3.701,5.446,4.859,9.045,5.414c2.077,0.32,4.224,0.441,6.243,0.723c0.331,0.262,0.631,0.738,0.866,1.021     c0.025,0.459,0.012,1.045-0.166,1.399c-0.478,1.103-2.147,1.955-1.739,3.325c0.337,0.101,0.783-0.086,1.191-0.098     c0.383-0.166,0.778-0.384,1.198-0.613c0.892-0.493,2.707-1.051,3.707-1.637c1.561-0.924,6.772,1.592,5.931-0.306     c1.866-0.371,3.509,0.146,4.548,2.565c0.357,0.283,0.65,0.416,0.854,0.646c5.548,0.541,5.229,4.91,11.396,3.948     c0.739-0.307,1.573-0.594,2.191-1.18c0.466-0.104,0.918-0.248,1.313-0.51c1.159-0.047,2.331-0.158,3.14-1.082     c0.28-0.759,0.592-1.498,1.293-1.943c2.287,1.262,4.051,0.804,5.714-0.146c1.745-0.992,3.376-2.521,5.395-3.166     c1.707,1.331,3.261,2.604,4.612,4.521c0.274,0.084,0.484,0.166,0.681,0.225c0.446-0.789,0.077-1.977,1.128-2.42     c1.491-0.238,2.943-0.816,4.453-0.887c0.153,0.07,0.255,0.178,0.363,0.279c0.184,0.039,0.318,0.121,0.452,0.205     c0.089,0.111,0.191,0.229,0.293,0.336c0.019,0.267,0.147,0.453,0.261,0.648c0.032,0.293-0.025,0.547-0.108,0.773     c-0.822,0.535-1.675,0.979-2.236,1.834c-0.089,0.274-0.166,0.49-0.229,0.695c0.567,0.299,1.249-0.35,1.784-0.535     c0.28-0.029,0.586,0.031,0.879,0.121c0.255,1.133,0.86,2.469,0.478,3.655c-0.115,0.097-0.217,0.2-0.325,0.306     c-0.483-0.006,3.09,2.612,4.434,4.574c0.172,0.061,0.357,0.09,0.554,0.121c0.153-0.037,0.274-0.115,0.395-0.197     c0.375-0.02,0.828-0.195,1.14-0.338c0.249-0.586,0.134-1.236,0.325-1.834c1.956,2.268,4.446,5.28,3.3,8.604     c0.975,0.903,2.746,0.146,3.453,1.7c0,0.438-0.006,0.886-0.038,1.324c-0.058,0.981,0.458,1.924,0.28,2.893     c-0.102,0.574-0.223,1.136-0.363,1.701c-0.204,0.834-0.433,1.656-0.682,2.465c-0.223,0.695-0.458,1.376-0.694,2.053     c-0.223,0.624,0.184,1.234-0.051,1.834c-0.286,0.757-1.401,1.471-1.503,2.234c-0.025,0.205,0.032,0.396-0.089,0.467     c-0.847,0.496-1.776,0.189-2.503,0.604c-0.483,0.273-0.923,0.629-1.356,0.98c-0.44,0.357-0.867,0.732-1.3,1.052     c-0.853,0.625-1.764,1.058-2.917,0.854c-1.319,1.438-0.637,3.873-2.739,4.759c0.655,2.683-0.548,4.39-0.727,6.728     c1.039-0.804,1.332,0.469,3.434-0.058c0.987-0.249,1.541-0.414,1.834-0.511c0.025-0.121,0.65-0.217,0,0     c-0.006,0.031,0.032,0.064,0.134,0.089c1.485,0.407,2.982,0.976,4.396,1.046c-0.045,0.179-0.121,0.307-0.198,0.42     c-2.803,0.948-0.796,4.963-0.873,7.205c1.165,1.255,2.076,0.261,3.363,1.368c0.064,0.153,0.172,0.28,0.121,0.396     c-0.656,1.491-1.064,3.713-1.726,5.063c-0.466,0.938-0.95,1.849-1.784,2.519c-0.07,0.176-0.051,0.375-0.019,0.572     c0.414,0.344,0.93,0.369,1.153,0.682c0.898,0.063,1.796,0.254,2.618,0.604c0.809,0.358,1.09,2.489,2.096,1.593     c-0.268,1.371,0.63,2.434,0.414,3.771c0.574,0.608,1.255,0.974,1.994,1.149c1.026,0.249,2.147,0.121,3.185-0.224     c0.764-0.254,1.478-0.624,2.089-1.063c0.459-0.02,1.045-0.015,1.408,0.172c0.09,0.172,0.192,0.369,0.287,0.571     c-0.344,0.759,0.656,0.941,0.834,1.701c0.096,0.394-0.166,1.344,0.038,1.699c0.325,0.505,0.21,0.339,0.325,0.505     c0.299,0.406,0.471,1.509,0.885,1.811c0.7,0.514,1.095,0.119,1.968,0.157c0.51-1.097,0.657-2.248,0.682-3.414     c0.038-2.134-0.356-4.317,0.179-6.256c0.185-0.647,0.465-1.272,0.898-1.858c0.28-0.059,0.541,0.006,0.751,0.082     c0.821,0.58,1.885,0.859,2.898,0.797c1.331-0.076,2.573-0.744,3.115-2.113c0.974-0.438,1.713-0.262,2.356,0.173     c0.867,0.612,1.549,1.701,2.383,2.39c1.026-0.135,1.121-1.345,1.803-1.865c0.885,0.166,0.541,1.356,1.121,1.854     c0.701-0.104,0.822-1.604,1.822-0.917c0.789,0.917,1.07,2.398,2.344,2.827c0.433-0.09,0.649-0.285,0.917-0.444     c0.236-0.533,0.057-1.185,0.344-1.693c0.114-0.096,0.223-0.205,0.331-0.313c0.287-0.034,0.548,0.022,0.771,0.106     c1.459,1.007,2.835,0.684,4.013-0.158c0.574-0.414,1.102-0.944,1.574-1.512c0.49-0.599,0.917-1.224,1.261-1.771     c1.026-0.313,2.09-0.044,3.134-0.323c0.42,0.158,0.834,0.285,1.127,0.459c0.312,1.479,1.172,2.422,2.293,3.09     c1.172,0.692,2.631,1.084,4.045,1.444c1.102,0.279,2.172,0.554,3.07,0.938c-0.14,0.574-0.548,0.873-1.013,1.115     c-0.466,0.248-1.001,0.43-1.37,0.758c-0.064,0.813-0.019,1.558,0.121,2.258c0.153,0.797,0.433,1.521,0.802,2.188     c0.382,0.67,0.854,1.271,1.395,1.826c0.994,1.014,2.229,1.848,3.548,2.574c1.637,0.895,3.414,1.604,5.026,2.247     c0.936,0.067,1.586-0.897,2.535-0.601l1.096-1.473c1.376-0.523,2.86-0.134,3.191,1.325c0.484-0.466-0.057-1.478,0.694-1.783     c0.555-0.063,1.198,1.058,0.478,1.224l1.752,1.445c1.019,1.311,2.86,1.852,4.841,1.204l2.242,0.789     c-0.224,0.918-1.23,0.376-1.854,0.535c-0.058,0.134-0.115,0.269-0.083,0.465c0.777,0.708-0.472,1.228-0.58,1.911l-0.191,1.88     c0.567,1.44,1.172,1.243,1.962,2.306c-0.064,0.172,0.369,0.859,0.414,1.07c1.662,1.044,2.248-0.128,3.847,0.337     c0.517-0.642,0.701-1.515,0.873-2.28c-0.108-0.095-0.223-0.209-0.312-0.324c-0.733-0.315-1.624-0.442-2.236-0.953     c0.49-1.137,1.885-0.639,2.427-1.016c0.547-1.813,1.707-2.623,3.108-3.02c1.464-0.414,3.191-0.391,4.777-0.594     c1.453-0.187,2.784-0.565,3.682-1.668c0.586,0.399,1.203,0.24,1.828,0.031c0.58-0.199,1.07,0.532,1.65,0.646     c0.402,0.066,1.268-0.165,1.268-0.165c0.241-1.677,1.069-0.183,1.942-0.097c0.649-0.414,0.981-1.137,1.593-1.572     c0.235-0.034,0.504-0.038,0.784,0.066c0.234,0.332,0.693,0.752,1.3,0.363l0.848-2.135c0.059-0.02,0.113-0.031,0.166-0.044     c0.074,0.248,0.203,0.903,0.42,1.278c0.898-0.153,1.211-1.236,1.771-1.849c0.198-0.05,0.332,0,0.468,0.06     c0.196,0.369,0.381,1.139,0.94,0.94l0.226-2.196c-0.656-1.399,0.532-2.61-0.031-3.955c0.662-0.166,1.389,0.556,1.841,1.037     c-0.332,1.436,1.54,1.785,0.815,3.09c0.526,0.152,1.139,0.313,1.674,0.174c1.504-1.729,2.879,0.172,4.498-0.473     c0.267-0.612-0.235-1.217-0.631-1.646c-0.129-0.527,0.478-0.729,0.752-1.051c0.465-0.038,1.063,0.011,1.223,0.232     c-0.039,0.203-0.211,0.324-0.408,0.408l1.848,0.51c0.063-0.51,0.06-1.104,0.248-1.465c0.879-0.033,1.752,0.127,2.605-0.218     c0.037,1.007,1.186,1.733,2.146,1.466c-0.295-0.867,0.39-1.957,1.42-1.556c1.556,1.677,4.692-0.159,6.543-1.024l1.133-1.783     c0.104,0.014,0.209,0.02,0.313,0.031c0.347-0.063,0.64-0.188,0.88-0.293c0.012-0.179-0.046-0.383-0.098-0.58     c1.025-3.006,4.625-2.668,6.179-4.976c3.339-0.616,3.964-3.917,5.222-5.452c0.817-0.996,2.967-2.841,3.531-1.186l1.127-0.362     c1.032-0.325,0.258-0.828,0.094-1.401c1.563-0.006,2.705-1.41,2.669-2.975c0.382-0.104,0.892,0.076,1.134,0.322     c0.195,0.009,0.387,0.015,0.572-0.023c0.178-0.279,0.45-0.682,0.404-1.037c-0.653-0.117-0.646-0.594-1.066-1.059     c-0.078-0.083-0.31-0.014-0.313-0.127c-0.02-0.689,2.497-1.174,2.497-1.174c0.592-1.406,1.492-2.556,2.06-3.97     c-0.436-0.338-1.128-0.008-1.519-0.42c0.485-0.791,1.397-1.358,1.631-2.353c-0.472-0.256-1.089-0.738-0.765-1.414     c0.37-0.121,0.949,0.051,1.121,0.051c0.045-0.277,0.096-0.609,0.058-0.896c-0.47-0.396-1.127-0.338-1.654-0.662     c-0.063-0.285-0.015-0.721,0.174-0.955c0.321-0.059,0.813-0.154,1.134-0.512c0.179-0.006,0.355-0.01,0.472,0.016     c0.114,0.083,0.224,0.17,0.369,0.271c0.07,0.51,0.07,1.104,0.777,1.104c-0.04,0.272-0.033,0.438-0.021,0.6     c0.649,0.617,1.978-0.3,1.707-1.127c-0.188-0.134-0.254-0.293-0.316-0.446l0.367-0.774c-0.396-2.949,5.183-3.528,3.535-6.963     c0.401-0.897,1.063-1.675,1.943-2.19c-0.11-0.465-0.135-1.007-0.09-1.518l1.389-1.127c0.969-0.264,0.631-1.279,0.924-2     c0.925-0.008,0.541,1.751,1.586,1.533c0.436-1.107,1.332-1.115,2.236-0.728c-0.104-1.229-0.968-2.313-1.479-3.376     c2.007,0.046,0.745-2.051,1.776-2.618c0.177-1.146-1.161-1.668-2.102-1.803c0.013-0.293,0.389-0.688,0.706-1     c0.232-0.038,0.497-0.045,0.78,0.06c0.274,0.674,0.979,0.586,1.21-0.084c0.563-0.082,0.387,0.752,0.835,0.897     c0.225-0.134,0.541-0.484,0.573-0.943l-0.063-2.541c0.006-0.09,0-0.184,0-0.278c-0.249-0.937-1.077,0.375-1.401,0.677     c-0.222,0.036-0.49,0.036-0.739-0.069c-0.027-0.135-0.062-0.279,0.009-0.466c0.764-0.828,2.013-1.567,2.322-2.595     c-2.63-0.284-3.93-2.807-6.166-3.826c-1,0.262-1.45,1.248-2.188,1.841c-0.392,0.089-0.993,0.255-1.496,0.181     c-0.784-0.512-1.227-1.67-1.249-2.519c0.917-0.707,1.841-0.392,2.72,0.106c1.134-2.537,4.466-3.65,7.16-4.563l0.19-1.88     c-1.43-1.159-2.197-3.185-4.038-3.904l2.224-0.082c0.401,0.229,0.814,0.384,1.242,0.339c0.443-0.479,0.604-1.186,1.044-1.688     c-1.441-4.396-6.314-6.017-8.338-10.046c0.465-2.762-1.403-5.694-2.641-8.256c0.229-5.213-5.046-6.938-7.88-9.514     c-0.3,0.186-0.918,0.146-1.262-0.013c-0.094-0.172-0.188-0.369-0.28-0.573c0.325-0.662,0.28-1.476,0.844-2.031     c0.074-0.023,0.165-0.051,0.248-0.063l0.819-1.82c1.567-2.645,3.981-4.541,6.198-5.805c0.089-0.17,0.062-0.305,0.038-0.438     c-0.817-0.238-1.618-0.86-1.3-1.812l2.51,0.256c0.504,0.158,1.013,0.511,1.453,0.368c0.427-0.985-1.166-2.663,0.572-3.083     c0.111,0.051,0.228,0.106,0.354,0.196c0.027,0.074,0.365-0.444,0.389-0.362l1.596-1c0.315-0.031,0.624-0.503,1.421-0.804     c0.808-0.297,0.835,0.097,1.813-0.272c0.981-0.36,2-1.323,2.822-1.548c1.159-0.313,1.993-0.383,2.038,0.089     c0.599,0.224,1.223-0.223,1.771-0.433c0.121-0.287,0.115-0.548,0.077-0.777c-1.383-0.669-0.617,0.351-0.701-1.293     c-0.062-1.267,0.266-2.026,0.266-2.026l-0.752-0.509l-0.729,0.235l-0.438-0.229c-1.753-0.675-3.783-0.299-5.303-0.866     l-1.813-0.82c-0.025-0.07-0.049-0.146-0.07-0.229c-0.896-1.09-2.03-1.332-3.185-1.159c-0.26,0.038-0.522,0.103-0.777,0.179     c-0.438,0.128-0.872,0.306-1.293,0.503c-0.306,0.148-0.604,0.307-0.892,0.466c0.177,1.771-0.32,1.033-1.393,1.765     c-1.563,1.968-6.149,2.503-7.157-0.128l-0.483-1.051c1.07-0.962-0.79-1.848,0.229-2.828c-0.036-0.217-0.17-0.389-0.271-0.586     c-1.41,0.739-0.785-1.178-1.932-1.115c-0.761,1.6-2.143-2.183-3.122,0.021c-0.18,0.051-0.363-0.007-0.555-0.07     c-1-1.918-2.688-2.249-3.854-4.058c0.023-2.229,1.974-2.217,2.826-4.121c0.568,0,1.205-0.058,1.715,0.204     c0.611,1.504,2.107-0.7,2.873-1.063c2.14-1.018,2.278-0.618,2.278-0.618c0.688-0.572,1.435-1.102,1.986-1.796     c0.446-0.656-0.859-1.311-0.471-1.98l-0.293-0.663c1.203-1.096,2.478-2.109,3.14-2.555c0.663-0.445,1.37-0.542,1.37-0.542     s1.783-1.484,4.063-1.968c2.271-0.491,1.225-1.585,1.661-2.356c0.434-0.772,1.324-0.893,1.324-0.893s0.767-0.994,1.541-0.566     c0.783,0.427,0.401-0.052,1.191-0.873c0.713-0.739,1.179-0.605,1.261-0.573c-0.076-0.069-0.375-0.336,1,0.268     c1.535,0.682,0,0,0.803,0.605c0.806,0.598,1.121,1.618,1.121,1.618l1.09,0.031l0.475,0.822l-2.007,3.829     c0,0-1.58,1.631-2.197,2.427c-0.611,0.797-0.414,0.943-0.414,0.943s-0.286,0.421-0.235,0.567     c0.063,0.204,0.732,0.433,0.732,0.433l0.146,1.045c0,0,0.338,1.197-0.299,1.815c-0.636,0.618-0.808,0.643-0.822,1.892     l-0.036,1.064c0,0,0,0-1.263,0c-1.268-0.007-0.414,0.942-0.414,0.942l1.159,0.548c0,0,1.015-0.491,1.548-0.562     c0.528-0.07-0.121-0.873-0.121-0.873l0.235-0.917c0,0,1.547-0.568,2.942-0.938c1.39-0.362,0.472-1.841,0.472-1.841     s0.656-0.439,0.918-1.185c0.26-0.745,2.381-1.038,4.396-2.198c2.008-1.16,3.021-1.657,5.303-2.14     c2.278-0.492,1.564-0.39,2.809-0.562c0.362-0.048,0.57-0.042,0.718-0.006c0.263-0.373,0.567-0.694,0.912-0.964     c0.318-0.413,0.696-0.778,1.184-1.05c0.059-0.033,0.114-0.051,0.174-0.076c0.17-0.225,0.411-0.41,0.76-0.506     c1.077-0.299,2.09-0.766,3.086-1.271c0.422-0.333,0.839-0.674,1.271-0.987c1.293-0.937,2.964-2.216,4.658-2.104     c0.119,0.008,0.228,0.045,0.334,0.078c0.008-0.003,0.017-0.005,0.021-0.008c0.111-0.164,0.265-0.314,0.467-0.439     c0.682-0.425,1.213-1.048,1.677-1.752c0.093-0.141,0.185-0.285,0.271-0.431c0.29-1.728,2.29-1.728,2.461-3.83     c0.142-0.084,0.287-0.132,0.434-0.15c0.478-0.059,0.944,0.208,1.262,0.617c0.063,0.018,0.124,0.026,0.186,0.053     c0.188,0.085,0.384,0.16,0.573,0.245l0,0c0.238,0.042,0.478,0.136,0.701,0.312c0.146,0.114,0.308,0.207,0.467,0.304     c0.285-0.149,0.63-0.209,1.026-0.115c0.647,0.154,1.395-0.166,1.989-0.418c0.161-0.18,0.396-0.302,0.711-0.302     c0.257,0,0.446,0.093,0.603,0.219c0.088,0.031,0.176,0.059,0.257,0.108h1.016c0.616-0.781,1.093-1.674,1.603-2.533     c0.025-0.047,0.063-0.077,0.095-0.116c-0.412-0.438-0.705-0.962-0.705-1.457c-0.046-0.018-0.084-0.044-0.133-0.059     c-0.275-0.08-0.368-0.314-0.34-0.536c-0.191-0.301-0.065-0.793,0.392-0.773c0.823,0.036,1.582-0.33,2.394-0.386     c0.398-0.148,0.802-0.291,1.202-0.429c0.142-0.174,0.354-0.285,0.624-0.315c0.018-0.087,0.027-0.174,0.072-0.265     c0.242-0.484,0.489-0.959,0.818-1.391c0.033-0.044,0.077-0.076,0.114-0.115c0.181-0.581,0.567-1.055,1.05-1.479     c0.119-0.483,0.422-0.856,0.956-1.001c0.074-0.02,0.145-0.022,0.207-0.013c0.354-0.227,0.727-0.411,1.108-0.573     c0.082-0.055,0.168-0.108,0.248-0.164c-0.237-0.463-0.159-1.115,0.355-1.35c0.342-0.156,0.687-0.329,1.035-0.496     c0.115-0.056,0.232-0.111,0.352-0.165c-0.84-5.156,2.16-1.156,2.68-1.201c0.138,0.124,0.271,0.246,0.406,0.364     c0.542,0.473,1.12,0.868,1.817,0.992c0.182,0.019,0.346,0.091,0.484,0.194c0.096-0.138,0.235-0.287,0.462-0.456l-0.103,0.014     c-0.099-0.146-0.192-0.289-0.283-0.427c0.694-0.637-1.306-2.637,0.276-2.561c0.089-0.052,0.266-0.234,0.432-0.413     c0.167-0.179,0.324-0.356,0.377-0.397c0.008-0.522-0.013-0.605,0-1.127c-0.242-0.408,0.563-2.333,0.567-3.396     c0.007-0.873-1.007-1.904-1.052-2.771c-0.033-0.61-0.078-1.223-0.144-1.827c-0.127-1.146-0.331-2.274-0.646-3.363     c-0.147-0.509-0.319-1.006-0.519-1.503c-0.268-0.649-0.587-1.293-0.962-1.911c-0.189-0.319-1.094-0.006-1.318-0.313     c0.19-0.114,1.059-0.884,1.273-0.98c2.943,0.033,2.593-3.49,4.573-4.191c2.063,0.86,4.195,1.364,6.399,1.784     c1.384-0.237,2.497-1.796,1.43-3.051c0.201-2.504,2.427-4.772,2.624-7.021c-0.452-1.128,1.421-1.222,1.322-2.235     c-0.239-0.618-1.262-0.922-0.962-1.688c1.352-2,1.688-5.611,1.114-7.332c0.649-1.178,2.497-1.859,3-3.503     c-0.979-1.44-1.242-1.854-0.948-3.051C403.854,74.828,404.364,74.561,404.554,74.165z"
   id="path42"
   style="fill:#000000;stroke-width:0.99999998;stroke-miterlimit:4;stroke-dasharray:none" />
			<path
   stroke="#FFFFFF"
   d="M139.824,275.694C139.85,275.574,140.474,275.479,139.824,275.694L139.824,275.694z"
   id="path44"
   style="fill:#000000;stroke-width:0.99999998;stroke-miterlimit:4;stroke-dasharray:none" />
		</g>
	</g>
</g>
<g
   id="XMLID_4_"
   style="fill:#000000;stroke-width:0.99999998;stroke-miterlimit:4;stroke-dasharray:none">
	<g
   opacity="0.52"
   id="g47"
   style="fill:#000000;stroke-width:0.99999998;stroke-miterlimit:4;stroke-dasharray:none">
		<path
   fill="#C8CACA"
   stroke="#FFFFFF"
   d="M385.76,126.476c-0.388-0.133-1.261-1.064-1.261-1.064l-2.438-2.058    c0,0-0.234-0.358-1.202,0.159c-0.354,0.19,0.331,2.612-0.104,2.835c-0.482,0.248-0.946,0.401-1.216,0.509    c-0.841,0.332-0.631,0.211-0.529,0.943c0.098,0.72-0.857,0.593-1.179,1.077c-0.362,0.541-0.152-1.083-1.006,0.751    c-0.325,0.693-1.051,1.241-1.051,1.241l-0.618,1.804c0,0-0.038,0.618-1.242,0.783l-2.115,0.649c0,0-2.031,0.222-2.102,0.777    c-0.076,0.644,1.138,1.98,1.112,2.79c-0.019,0.586-0.826,1.828-1.195,2c-0.346,0.166-1.045-0.593-1.421-0.541    c-0.722,0.102-0.955,1.115-2.677,1.102c-1.714-0.014-1.85-0.975-1.85-0.975l-0.819,0.234l-0.752-1.006    c0,0-1.542,0.159-1.894,0.503c-0.656,0.651-1.032,2.345-1.032,2.345s-2.024,2.242-2.854,3.332    c-0.834,1.095-2.288,0.312-3.396,1.197c-1.1,0.886-3.038,2.006-3.038,2.006l-4.135,2.032c0,0-1.917,1.172-2.217,2.631    c0,0,0.179,0.337,0.262,0.434c0.745,0.82,0.719,0.387,1.521,0.986c0.804,0.606,0.67,0.976,0.67,0.976s0,0,0.095,0.701    c0.096,0.693,0.714-0.103,0.714-0.103l0.032-1.07l1.063-0.14c0,0,1.511,0.503,2.616,0.707c1.114,0.204,1.771-0.35,2,0.083    c0.263,0.503-1.586,1.637-1.586,1.637s0.299,0.847,0.218,1.567c-0.082,0.725-1.015,0.497-1.053,1.567    c-0.038,1.069-0.647,1.859-0.647,1.859l-0.444,2.021c0,0-0.401,2.357-1.414,2.854c-1.021,0.49,0.09,0.696,0.166,1.217    c0.068,0.522-0.369,1.293-0.369,1.293s-1.204,0.515-1.146,0.866c0.083,0.484,0.761,0.255,2.001,0.083c0,0,0.751,0.253,1.313,0.356    c0,0-0.921,0.41-0.813,0.644c0.104,0.248,0,0,1.083,0.032l0.805,0.599l0.979,0.579l0.641-0.617c0,0,0,0,0.389-1.12    c0.387-1.117,0,0,0.813-0.645l1.157,0.554l0.828,0.777l0.981,0.573c0,0,0.386-1.116,1.314-0.887    c0.938,0.225,1.04-0.323,1.646,0.129c0.148,0.112,0.261,0.298,0.348,0.509c0.521-0.581,1.049-1.153,1.611-1.696    c0.271-0.471,0.607-0.881,1.083-1.182c0.179-0.53,0.613-0.962,1.343-0.962c0.021,0,0.038,0.007,0.06,0.008    c0.191-0.096,0.416-0.156,0.682-0.156c0.207,0,0.385,0.045,0.547,0.108c0.104-0.022,0.219-0.034,0.34-0.034    c0.025,0,0.046,0.006,0.07,0.007c0.107-0.033,0.217-0.072,0.33-0.095c0.406-0.08,0.805-0.206,1.194-0.348    c0.163-0.126,0.353-0.229,0.537-0.331c0.082-0.128,0.161-0.258,0.261-0.379c0.229-0.307,0.455-0.613,0.704-0.905    c0.373-0.438,0.897-0.769,1.467-0.989c0.104-0.062,0.195-0.136,0.309-0.188c0.427-0.33,0.947-0.563,1.541-0.701    c0.161-0.193,0.347-0.366,0.545-0.527c0.08-0.444,0.158-0.889,0.241-1.332c0.009-0.045,0.022-0.081,0.036-0.123    c-0.112-0.128-0.236-0.27-0.395-0.447c-0.21-0.242,0.07-1.146-0.51-0.93c-0.409,0.153-0.688-0.376-0.764-0.433    c-0.228-0.165-0.242,0.528-0.34,0.542c-0.157,0.024-0.399-0.479-0.399-0.479l-1.548-0.923l-1.446-0.669l-0.611-0.516l-0.652-0.842    c0,0-0.203-0.038-0.044-0.331c0.165-0.286,0.165-0.286,0.165-0.286l0.631-0.352l-0.053-0.355c0.015,0,0.015-0.102-0.024-0.632    c-0.044-0.854-0.07-1.516-0.07-1.516l0.008-0.471c0,0-0.489-0.135,0.152-0.352c0.649-0.222,1.776-0.376,2.083-0.618    c0.305-0.241,0.751-1.432,1.19-1.693c0.438-0.254,1.479-1.064,1.479-1.064s0.057-0.077,0.732-0.102    c0.669-0.026,1.642-0.823,1.735-1.103c0.104-0.281,0.483-0.93,0.483-0.93l1.669-1.688l0.639-1.286l0.693-0.828l0.637-0.821    l0.347-0.446l1.345-1.044l0.3-0.776c0,0,0.134-0.549,0.096-0.81c-0.036-0.259-0.271-1.024-0.271-1.024l-0.479-1.007l-0.148-1.644    l0.563-1.803c0.235-0.236,1.669-1.631,1.669-1.631s1.663-1.222,1.981-1.401c0.312-0.172,1.682-1.554,1.682-1.554    s0.707-0.765,0.942-0.994c0.242-0.235,0.228,0.166,0.497-0.337c0.255-0.473-0.191-0.849,0.561-1.497l0.293-0.229    C387.423,126.405,386.156,126.609,385.76,126.476z"
   id="path49"
   style="fill:#000000;stroke-width:0.99999998;stroke-miterlimit:4;stroke-dasharray:none" />
	</g>
	<g
   id="g51"
   style="fill:#000000;stroke-width:0.99999998;stroke-miterlimit:4;stroke-dasharray:none">
		<line
   fill="none"
   stroke="#FFFFFF"
   x1="366.638"
   y1="155.667"
   x2="366.645"
   y2="155.707"
   id="line53"
   style="fill:#000000;stroke-width:0.99999998;stroke-miterlimit:4;stroke-dasharray:none" />
		<path
   fill="#C8CACA"
   stroke="#FFFFFF"
   d="M385.765,126.469c-0.388-0.134-1.261-1.063-1.261-1.063l-2.438-2.058    c0,0-0.236-0.355-1.204,0.159c-0.354,0.19,0.331,2.612-0.104,2.835c-0.479,0.249-0.944,0.401-1.216,0.509    c-0.841,0.332-0.631,0.21-0.529,0.943c0.1,0.72-0.855,0.592-1.179,1.077c-0.362,0.542-0.151-1.083-1.006,0.751    c-0.325,0.693-1.051,1.241-1.051,1.241l-0.618,1.804c0,0-0.038,0.618-1.242,0.783l-2.115,0.649c0,0-2.027,0.223-2.102,0.777    c-0.076,0.644,1.14,1.98,1.114,2.79c-0.021,0.586-0.828,1.828-1.197,2c-0.344,0.166-1.045-0.593-1.421-0.541    c-0.72,0.102-0.955,1.114-2.675,1.102c-1.716-0.013-1.852-0.975-1.852-0.975l-0.817,0.234l-0.754-1.006    c0,0-1.542,0.159-1.894,0.503c-0.656,0.649-1.032,2.345-1.032,2.345s-2.021,2.242-2.854,3.332    c-0.835,1.096-2.287,0.313-3.396,1.197c-1.102,0.886-3.038,2.006-3.038,2.006l-4.135,2.032c0,0-1.917,1.172-2.217,2.631    c0,0,0.179,0.337,0.262,0.434c0.745,0.821,0.722,0.389,1.522,0.986c0.803,0.605,0.669,0.976,0.669,0.976s0,0,0.095,0.701    c0.097,0.693,0.714-0.103,0.714-0.103l0.032-1.07l1.063-0.14c0,0,1.513,0.503,2.617,0.707c1.114,0.204,1.771-0.351,2,0.083    c0.265,0.503-1.586,1.637-1.586,1.637s0.3,0.848,0.218,1.567c-0.083,0.728-1.015,0.497-1.053,1.567    c-0.038,1.069-0.646,1.859-0.646,1.859l-0.446,2.021c0,0-0.401,2.355-1.414,2.854c-1.021,0.49,0.09,0.694,0.166,1.217    c0.07,0.522-0.369,1.293-0.369,1.293s-1.204,0.517-1.146,0.866c0.083,0.484,0.759,0.255,2.001,0.083c0,0,0.751,0.255,1.312,0.356    c0,0-0.923,0.408-0.813,0.644c0.103,0.248,0,0,1.083,0.032l0.803,0.599l0.979,0.579l0.64-0.617c0,0,0,0,0.389-1.12    c0.389-1.115,0,0,0.815-0.646l1.156,0.554l0.827,0.777l0.981,0.573c0,0,0.388-1.114,1.315-0.887    c0.938,0.225,1.037-0.323,1.646,0.129c0.289,0.216,0.438,0.688,0.523,1.126c0.146-0.121,0.297-0.234,0.445-0.348    c0.736-1.309,1.639-2.469,2.854-3.101c0.176-0.198,0.422-0.352,0.77-0.415c0.805-0.146,1.623-0.185,2.441-0.205    c0.001,0,0.002,0,0.003-0.001c0.236-0.063,0.479-0.119,0.72-0.179c0.332-0.279,0.672-0.549,1.023-0.804    c0.063-0.048,0.131-0.087,0.194-0.131c0.536-1.261,1.625-2.262,3.271-2.484c0.122-0.056,0.264-0.087,0.395-0.132    c0.202-0.252,0.416-0.482,0.656-0.668c0.171-0.417,0.361-0.792,0.574-1.145c-0.306-0.466-0.521-0.709-1.021-1.275    c-0.21-0.241,0.07-1.146-0.51-0.93c-0.407,0.153-0.688-0.376-0.764-0.433c-0.228-0.166-0.242,0.528-0.339,0.542    c-0.158,0.024-0.4-0.479-0.4-0.479l-1.548-0.923l-1.446-0.669l-0.61-0.516l-0.653-0.842c0,0-0.203-0.038-0.044-0.331    c0.164-0.286,0.164-0.286,0.164-0.286l0.632-0.353l-0.057-0.349c0.015,0,0.015-0.103-0.021-0.638    c-0.044-0.854-0.07-1.516-0.07-1.516l0.009-0.471c0,0-0.488-0.135,0.151-0.352c0.649-0.223,1.776-0.375,2.083-0.618    c0.31-0.241,0.751-1.433,1.19-1.693c0.438-0.255,1.479-1.064,1.479-1.064s0.061-0.076,0.732-0.102    c0.669-0.025,1.644-0.822,1.736-1.103c0.104-0.279,0.482-0.93,0.482-0.93l1.669-1.688l0.64-1.286l0.692-0.828l0.638-0.821    l0.347-0.446l1.344-1.044l0.3-0.776c0,0,0.134-0.549,0.097-0.81s-0.271-1.024-0.271-1.024l-0.479-1.007l-0.148-1.645l0.563-1.803    c0.235-0.236,1.669-1.631,1.669-1.631s1.663-1.224,1.981-1.401c0.312-0.172,1.682-1.554,1.682-1.554s0.707-0.765,0.942-0.994    c0.242-0.236,0.229,0.166,0.497-0.337c0.255-0.473-0.191-0.849,0.561-1.497l0.293-0.229    C387.428,126.399,386.16,126.604,385.765,126.469z"
   id="path55"
   style="fill:#000000;stroke-width:0.99999998;stroke-miterlimit:4;stroke-dasharray:none" />
	</g>
</g>
<g
   id="g57"
   style="fill:#000000;stroke-width:0.99999998;stroke-miterlimit:4;stroke-dasharray:none">
	<path
   stroke="#FFFFFF"
   stroke-width="0.5"
   d="M362.028,209.317c0.089,0.066,0.219,0.117,0.396,0.141   c1.337,0.148,2.202-0.018,2.202-0.018c0.568,0.146,1.469-0.408,2.063-0.699c0.783-0.387,0.459-1.385,0.459-1.385   s-0.953-0.275-2.213-0.035c-1.258,0.24-1.396,0.09-2.155,0.645C362.125,208.44,361.457,208.868,362.028,209.317z"
   id="path59"
   style="fill:#000000;stroke-width:0.99999998;stroke-miterlimit:4;stroke-dasharray:none" />
	<g
   id="XMLID_1_"
   style="fill:#000000;stroke-width:0.99999998;stroke-miterlimit:4;stroke-dasharray:none">
		<g
   id="g62"
   style="fill:#000000;stroke-width:0.99999998;stroke-miterlimit:4;stroke-dasharray:none">
			<path
   stroke="#FFFFFF"
   stroke-width="0.5"
   d="M383.181,183.214c-0.19-0.047-0.518,0.572-0.518,0.572s-0.376-0.586-0.399-1.248     c-0.007-0.217,0.02,0.121-0.051-0.377c-0.136-1.033-0.166-2.394-0.27-3.102c-0.141-1.045-0.197-2.038-0.197-2.038     s-0.211-0.811-0.323-1.255c-0.34-1.338-0.146-1.669-1.136-3.218c-0.108-0.166-0.434-0.645-1.096-1.766     c-0.382-0.637-1.249-1.605-1.401-1.72c-0.604-0.459-1.234-0.669-1.399-0.911c-0.172-0.242-0.654-0.848-1.045-1.72     c-0.396-0.888-0.601-1.39-0.601-1.39l-0.479-0.535l-0.931-1.887c-0.375-0.604-0.573-0.813-1.136-1.451     c-0.035-0.041-0.051-0.108-0.064-0.177c-0.008,0-0.016,0.002-0.021,0.002c-0.034,0.206-0.091,0.405-0.17,0.596     c0,0.001-0.001,0.001-0.001,0.002c0.216,0.854-0.239,1.901-1.372,1.915c-0.167,0.1-0.363,0.165-0.59,0.188     c-0.149,0.082-0.313,0.146-0.491,0.193c-0.045,0.031-0.087,0.066-0.139,0.091c-0.035,0.019-0.069,0.042-0.106,0.062     c-0.148,0.16-0.324,0.293-0.522,0.404c-0.074,0.077-0.153,0.149-0.226,0.231c-0.274,0.314-0.531,0.643-0.806,0.957     c-0.334,0.683-0.963,1.208-1.909,1.28c-0.49,0.17-1.021,0.169-1.52,0.03c-0.202,0.063-0.421,0.103-0.656,0.116     c-0.047,0.011-0.085,0.027-0.134,0.034c-0.271,0.043-0.527,0.125-0.779,0.222c-0.075,0.044-0.149,0.09-0.226,0.135     c-0.063,0.117-0.123,0.236-0.219,0.334c-0.768,0.791-1.311,1.693-2.087,2.559c-0.107,0.12-0.236,0.207-0.374,0.276     c-0.127,0.127-0.252,0.257-0.377,0.386c0.537,0.518,0.572,1.972,0.572,1.972s0,0,0.068,0.521     c0.076,0.522,0.407,0.297,0.324,1.025c-0.082,0.721,0.292,0.846,0.361,1.369c0.07,0.523,1.053,1.104,1.053,1.104l-0.624,2.038     c0,0,0,0,0.497,0.991c0.496,1-1.257-0.825-1.739-0.825c-0.259,0-0.813,0.643-0.813,0.643l-0.609,0.789l0.141,1.054l0.962,0.397     l0.496,1.002c0,0,0.448,0.647,0.391,1.541c-0.059,0.897,0.113,0.873,0.113,0.873s1.231,1.076,1.354,1.948     c0.112,0.871-0.143,1.617-0.143,1.617s0,0-0.263,0.746c-0.262,0.743-0.083,0.719-0.083,0.719s-0.056,0.894-0.068,2.142     c-0.015,1.242-0.722,2.679-0.722,2.679l-0.204,1.142l0.302,0.223l-0.009,0.354l0.021,0.396c0,0-0.389-0.076-0.356,0.055     c-0.47,0.016,0.053,0.523,0.104,0.734c0.07,0.266-0.157,0.104,0.047,0.311c0.062,0.064,0.067,0,0.157,0.193     c0,0-0.616,0.285,0.112,0.521c0.085,0.019,0.512-0.058,0.573,0.039c0.063,0.082-0.508,0.158-0.438,0.254     c0.059,0.076,0.181,0.224,0.287,0.345c0.059,0.069,0.107,0.127,0.142,0.172c0.07,0.084-0.179,0.076-0.114,0.146     c0.058,0.064,0.316,0.563,0.535,0.602c0.095,0.014,0.127-0.42,0.223-0.406c0.187,0.029,0.353,0.059,0.384,0.074     c0.096,0.061-0.312,0.289-0.159,0.313c0.159,0.023,0.346,0.107,0.639,0.043c0.343-0.068,0.801-0.299,0.941-0.396     c0.369-0.246,0.828,0.16,1.098,0.121c0.27-0.037,1.306-0.375,1.306-0.375c0.287-0.377-0.096-0.188,0.287-0.377     c0.382-0.185,0.566-0.272,0.854-0.179c0.28,0.091-0.064,0.541,0.28,0.091c0.35-0.445,0.35-0.445,0.35-0.445l0.896-0.317     c0.009-0.465,0.313-0.707,0.313-0.707s0.541-0.006,0.579-0.217c0.038-0.205-0.15-0.646-0.15-0.646s0.322-0.601,0.579-0.517     c0.094,0.03,0.444,0.045,0.444,0.045c0.465-0.065,0.858-0.696,1.204-0.676c0.195,0.006,0.443,0.45,0.647,0.426     c0.196-0.03,1.399-0.127,1.399-0.127c0.287-0.369-0.217-0.101,0.287-0.369c0.503-0.274,0.452-1.178,0.962-1.383     c0.518-0.203,0.849-0.248,0.849-0.248s0.128-0.082,0.427-0.324c0.313-0.235,0.745-0.006,0.745-0.006     c0.302-0.306,0.58,0.146,1.06-0.319c0.478-0.466,0.389-0.478,0.692-0.72c0.307-0.241,0.046-0.202,0.707-0.293     c0.663-0.09,0.346,0.356,1.143-0.121c0.331-0.202,0.248-0.305,1.068-1.272c0,0,0.123-1.313,0.396-1.668     c0.27-0.34,0.225-1.008,0.225-1.008l0.452-1.076c0,0,0.189-0.166,0.579-1.797C383.697,185.31,383.181,183.214,383.181,183.214z"
   id="path64"
   style="fill:#000000;stroke-width:0.99999998;stroke-miterlimit:4;stroke-dasharray:none" />
		</g>
		<g
   id="g66"
   style="fill:#000000;stroke-width:0.99999998;stroke-miterlimit:4;stroke-dasharray:none">
			<path
   stroke="#FFFFFF"
   stroke-width="0.5"
   d="M383.185,183.206c-0.188-0.045-0.518,0.574-0.518,0.574s-0.376-0.586-0.399-1.248     c-0.007-0.217,0.021,0.121-0.051-0.377c-0.136-1.031-0.166-2.396-0.27-3.104c-0.143-1.045-0.197-2.038-0.197-2.038     s-0.211-0.811-0.323-1.255c-0.339-1.338-0.146-1.669-1.136-3.218c-0.105-0.166-0.434-0.645-1.096-1.766     c-0.382-0.637-1.249-1.604-1.401-1.72c-0.604-0.459-1.234-0.669-1.397-0.911c-0.174-0.242-0.656-0.848-1.047-1.72     c-0.396-0.888-0.601-1.39-0.601-1.39l-0.478-0.535l-0.934-1.887c-0.375-0.604-0.572-0.813-1.135-1.451     c-0.034-0.039-0.049-0.105-0.063-0.172c-0.011,0-0.021,0.002-0.029,0.003c-0.034,0.205-0.089,0.404-0.167,0.594     c0,0.001-0.001,0.003-0.002,0.005c0.216,0.854-0.239,1.9-1.372,1.914c-0.167,0.1-0.363,0.165-0.593,0.188     c-0.147,0.082-0.313,0.146-0.488,0.193c-0.045,0.031-0.087,0.066-0.139,0.091c-0.035,0.019-0.069,0.042-0.106,0.062     c-0.148,0.16-0.324,0.293-0.522,0.404c-0.076,0.077-0.153,0.149-0.226,0.231c-0.274,0.314-0.531,0.643-0.806,0.957     c-0.335,0.683-0.963,1.208-1.909,1.28c-0.49,0.17-1.021,0.169-1.52,0.03c-0.202,0.063-0.421,0.103-0.658,0.116     c-0.045,0.011-0.084,0.027-0.132,0.034c-0.271,0.043-0.527,0.125-0.779,0.222c-0.075,0.044-0.149,0.09-0.227,0.135     c-0.063,0.117-0.122,0.236-0.218,0.334c-0.769,0.791-1.311,1.693-2.087,2.559c-0.107,0.12-0.237,0.207-0.374,0.277     c-0.126,0.125-0.248,0.253-0.372,0.38c0.535,0.518,0.572,1.972,0.572,1.972s0,0,0.068,0.521c0.076,0.522,0.407,0.299,0.324,1.025     c-0.082,0.72,0.293,0.847,0.361,1.369c0.069,0.521,1.053,1.104,1.053,1.104l-0.624,2.039c0,0,0,0,0.497,0.993     c0.496,1-1.256-0.827-1.739-0.827c-0.261,0-0.813,0.643-0.813,0.643l-0.609,0.789l0.142,1.053l0.963,0.398l0.494,1.002     c0,0,0.446,0.648,0.391,1.541c-0.059,0.898,0.115,0.873,0.115,0.873s1.229,1.076,1.352,1.949     c0.113,0.871-0.142,1.617-0.142,1.617s0,0-0.263,0.746c-0.262,0.742-0.083,0.719-0.083,0.719s-0.059,0.893-0.068,2.141     c-0.015,1.242-0.722,2.678-0.722,2.678l-0.203,1.141l0.301,0.225l-0.007,0.354l0.021,0.396c0,0-0.39-0.076-0.354,0.053     c-0.473,0.018,0.052,0.525,0.103,0.736c0.07,0.264-0.157,0.104,0.047,0.309c0.063,0.066,0.067,0,0.157,0.195     c0,0-0.617,0.285,0.114,0.521c0.083,0.02,0.51-0.059,0.571,0.039c0.063,0.082-0.51,0.156-0.438,0.254     c0.06,0.076,0.181,0.223,0.287,0.344c0.059,0.07,0.105,0.127,0.142,0.172c0.068,0.084-0.181,0.076-0.114,0.146     c0.059,0.063,0.317,0.561,0.535,0.6c0.095,0.014,0.127-0.42,0.225-0.408c0.186,0.031,0.352,0.061,0.382,0.076     c0.097,0.061-0.313,0.287-0.159,0.314c0.159,0.021,0.346,0.104,0.639,0.043c0.347-0.068,0.804-0.301,0.941-0.396     c0.369-0.248,0.828,0.16,1.097,0.121c0.271-0.037,1.309-0.375,1.309-0.375c0.285-0.377-0.098-0.189,0.285-0.377     c0.384-0.184,0.564-0.271,0.854-0.178c0.28,0.09-0.063,0.541,0.28,0.09c0.35-0.447,0.35-0.447,0.35-0.447l0.898-0.316     c0.007-0.465,0.313-0.707,0.313-0.707s0.541-0.006,0.578-0.217c0.038-0.203-0.15-0.645-0.15-0.645s0.323-0.6,0.579-0.516     c0.098,0.027,0.444,0.045,0.444,0.045c0.466-0.064,0.86-0.695,1.204-0.678c0.197,0.008,0.445,0.451,0.647,0.428     c0.196-0.031,1.399-0.127,1.399-0.127c0.287-0.369-0.217-0.104,0.287-0.369c0.503-0.273,0.452-1.18,0.962-1.383     c0.518-0.203,0.849-0.248,0.849-0.248s0.128-0.082,0.429-0.324c0.313-0.236,0.743-0.006,0.743-0.006     c0.302-0.309,0.58,0.145,1.06-0.32c0.479-0.465,0.391-0.479,0.692-0.719c0.308-0.242,0.047-0.203,0.707-0.293     c0.663-0.09,0.346,0.354,1.143-0.121c0.331-0.203,0.248-0.309,1.07-1.273c0,0,0.119-1.313,0.395-1.67     c0.27-0.338,0.225-1.006,0.225-1.006l0.452-1.076c0,0,0.189-0.166,0.579-1.797C383.699,185.304,383.185,183.206,383.185,183.206z     "
   id="path68"
   style="fill:#000000;stroke-width:0.99999998;stroke-miterlimit:4;stroke-dasharray:none" />
		</g>
	</g>
</g>
<path
   fill="#B3B3B3"
   stroke="#000000"
   stroke-width="0.5"
   d="M324.309,163.904"
   id="path70"
   style="fill:#000000;stroke-width:0.99999998;stroke-miterlimit:4;stroke-dasharray:none" />
<g
   id="g72"
   style="fill:#000000;stroke-width:0.99999998;stroke-miterlimit:4;stroke-dasharray:none">
	<path
   stroke="#FFFFFF"
   stroke-width="0.5"
   d="M389.51,214.245c0.119,0.232,0.81,0.132,0.81,0.132s0.769-0.229,0.719-0.44   c-0.044-0.179-0.67-0.316-0.67-0.316l-0.46,0.219C389.904,213.835,389.423,214.074,389.51,214.245z"
   id="path74"
   style="fill:#000000;stroke-width:0.99999998;stroke-miterlimit:4;stroke-dasharray:none" />
	<path
   stroke="#FFFFFF"
   stroke-width="0.5"
   d="M381.982,209.134c-0.26-0.064-0.642,0.508-0.642,0.508s-0.334,0.719-0.141,0.821   c0.199,0.104,0.407-0.032,0.688-0.285l0.145-0.479C382.033,209.696,382.172,209.185,381.982,209.134z"
   id="path76"
   style="fill:#000000;stroke-width:0.99999998;stroke-miterlimit:4;stroke-dasharray:none" />
	<path
   stroke="#FFFFFF"
   stroke-width="0.5"
   d="M399.222,171.897l0.228,0.036c0,0,0.204-0.257,0.17-0.355   c-0.041-0.117-0.401-0.146-0.401-0.146s-0.188,0.145-0.188,0.228C399.027,171.74,399.222,171.897,399.222,171.897z"
   id="path78"
   style="fill:#000000;stroke-width:0.99999998;stroke-miterlimit:4;stroke-dasharray:none" />
	<path
   stroke="#FFFFFF"
   stroke-width="0.5"
   d="M405.041,186.319c0,0-0.323,0.871-0.543,1.143c-0.231,0.289-1.12,0.975-1.12,0.975   l-0.549,0.567l-0.799,1.036l-1.165,1.41c0,0-0.244,0.494-0.361,0.638c-0.132,0.155-0.629,0.521-0.629,0.521l-1.002,0.768   c0,0-0.702,0.509-0.948,0.661c-0.222,0.139-0.513,0.896-0.792,1.13c-0.126,0.104-0.851,0.189-0.851,0.189l-1.141,0.787   c0,0-0.279,0.098-0.362-0.039c-0.178-0.287-0.525,0.115-0.525,0.115s-0.73,0.113-0.93,0.127c-0.188,0.014-0.632,0.104-0.46,0.594   c0.17,0.492,0.121,1.229,0.121,1.229s-0.232,1.233,0.063,1.458c0.084,0.063,0.346,0.126,0.619,0.18   c0.375,0.069,0.771,0.119,0.771,0.119l0.759,0.313c0,0,0.671-0.688,0.958-0.652c0.185,0.021,0.509,0.541,0.509,0.541l0.646-0.351   c0,0,0.334,0.38,0.828,0.322c0.397-0.045,1.575-0.447,1.853-0.482c0.205-0.027,0.576-0.018,0.978-0.021   c0.2-0.002,0.451,0.393,0.649,0.375c0.409-0.031,0.255,0.604,0.813,0.379c0.226-0.092,0.347-0.804,0.313-1.021   c-0.11-0.81,0.424-1.522,0.424-1.522l0.15-0.554c0,0,0.143-0.495,0.281-0.571c0.296-0.156,1.302-0.396,1.302-0.396l0.317,0.712   c0,0,0.165,0.34,0.271,0.314c0.611-0.127,0.79-0.147,0.79-0.147s0.968-0.856,1.344-1.069c0.826-0.468,2.382-0.724,2.382-0.724   l1.414-0.55c0,0,1.329-0.776,1.813-0.954c0.5-0.188,2.085-0.479,2.085-0.479l0.734-0.717l0.632-0.609l0.489-0.377l0.57-0.121   c0,0,0.225-0.803,0.71-1.07c0.485-0.271,0.926-0.405,1.349-0.36c0.426,0.046,0.488-0.063,0.488-0.063l1.511-0.16l0.602,1.072   l0.453,0.025l0.889-0.432l0.299-0.133c0,0,0.104-0.233,1.159-0.424c0.368-0.063,0.424,0.119,0.424,0.119s0.77-0.019,0.188,0.729   c-0.426,0.548-0.426,0.548-0.426,0.548l-0.266,0.436l-0.648,0.799l-0.347,1.111l0.164,1.186l0.033,1.021l-0.117,1.689   c0,0,1.05,0.778,1.471,0.864c0.223,0.045,0.941,0.627,0.941,0.627l0.675,0.976c0,0,0.521,0.197,0.699,0.171   c0.19-0.027,1.152,0.2,1.152,0.2s0.782,0.146,1.119-0.063c0.166-0.104,0.313-1.231,0.313-1.231l0.255-0.624l0.504-0.891l0.109-0.73   l1.021-1.174l0.744-0.501l0.232-1.271c0,0,0.784-0.856,1.122-1.04c0.39-0.216,1.729-0.316,2.046-0.546   c0.303-0.218,0.189-0.561,0.189-0.561l0.175-0.732c0,0-0.221-0.278-0.269-0.629c-0.017-0.122-0.339-0.077-0.473-0.157   c-0.104-0.063-0.7-0.171-0.7-0.171s-0.249,0.074-0.699-0.172c-0.45-0.247-0.716-0.612-0.716-0.612l-0.025-1.32l-0.057-0.4   c0,0-0.123-0.439-0.1-0.604c0.107-0.729,0.459-1.264,0.459-1.264l0.3-0.129l0.305-0.086l0.434-0.146l0.273,0.36l-0.233,0.921   l0.183,0.688c0,0,0.185,0.646,0.329,0.755c0.124,0.095,0.011-0.579,0.011-0.579l0.104-0.592c0,0,0.211-0.193,0.293-0.171   c0.163,0.047,0.271,0.551,0.349,0.571c0.136,0.037,0.873,0.104,0.873,0.104s0.472-0.196,0.778-0.237   c0.309-0.041,0.231,0.187,0.3,0.225c0.297,0.187-0.105,0.306-0.123,0.421c-0.061,0.39-0.25,0.479-0.639,0.614   c-0.174,0.063-0.989-0.138-1.074,0.061c-0.034,0.083-0.104,0.293-0.041,0.359c0.092,0.103,0.55,0.061,0.55,0.061   s0.354,0.178,0.555,0.104c0.563-0.209,1.274-0.539,1.715-0.676c0.243-0.078,1.007-0.228,1.007-0.228s1.438-0.113,1.909-0.218   c0.354-0.077,0.867-0.086,1.157-0.11c0.288-0.024,1.15-0.155,1.15-0.155c0.771,0.07,1.398,0.029,1.615,0.271   c-0.162-0.513-0.112-1.229-0.094-1.319c0.271-1.013,0.36-1.336,0.36-1.336s0.32-0.479,0.457-0.949   c0.101-0.354,0.521-1.137,0.521-1.137l0.541-0.341c0,0,0.625-0.134,0.838-0.157c0.225-0.023,0.896-0.034,0.896-0.034l-0.343,0.804   c0,0-0.131,0.152-0.296,0.482c0.061,0.438,0.104,0.118,0.223,0.637l0.116,0.521c0,0,0.212,0.235,0.32,0.709   c0.097,0.409-0.032-0.032,0.255,0.543c0.284,0.579,0.713,0.261,0.713,0.261l0.415-0.59l0.404-0.32   c0.286-0.884,0.482-1.088,0.482-1.088l0.313-1.021c-0.119-0.561-0.564-0.854-0.564-0.854l-0.136-0.337l0.051-0.627l0.04-0.358   c0.252-0.443,0.363-0.314,0.363-0.314l0.545-0.297l0.36-0.314l0.389-0.143l0.94-0.039l0.468,0.115l0.191,0.418   c0,0-0.014,0.269,0.041,0.303c0.062,0.043,0.396-0.053,0.396-0.053l0.188-0.291l-0.166-0.557l-0.03-0.885l-0.023-0.528l0.162-0.468   c0,0,0.146-0.447,0.178-0.688c0.021-0.188-0.004-0.788,0.097-0.945c0.104-0.162,0.6-0.212,0.785-0.194   c0.283,0.021,0.688-0.259,0.771,0.026c0.088,0.299,0.521,0.394,0.442,0.605c-0.292,0.839-0.919,1.128-1.063,1.477   c-0.062,0.138-0.425,0.452-0.408,0.761c0.013,0.281,0.137,0.542,0.172,0.825c0.048,0.381-0.05,0.42,0.028,0.884   c0,0,0.093,0.446,0.188,0.908c0.069,0.336,0.146,0.679,0.188,0.856c-0.254,0.123-0.138,0.33-0.138,0.33s0.486,0.1,0.642,0.047   c0.228-0.075,0.862-0.604,0.862-0.604s-0.014-0.773,0.604-1.188c0.496-0.338,0.757-0.367,0.96-0.578   c0.203-0.209,0.818-0.899,0.971-1.149c0.125-0.205-0.057-0.747-0.057-0.747l-0.137-0.337l-0.098-0.696l0.079-0.412l0.146-0.597   c0,0,0.094-0.562,0.171-0.731c0.139-0.31,0.587-0.85,0.85-1.049c0.329-0.25,1.063-0.854,1.705-1.074   c0.215-0.073-0.729-0.366-0.968-0.49c-0.118-0.06-0.43-0.302-0.43-0.302c-0.581-0.438-0.428-0.338-0.581-0.438   c-0.245-0.148-0.355-1.08-0.355-1.08l-0.271-0.477l0.049-0.464c-0.263-0.375-0.288-0.958-0.313-1.289   c-0.031-0.494-0.178-1.974-0.178-1.974l0.188-1.623l0.462-1.573l0.478-1.13l0.266-1.057l0.045-0.672l0.074-0.766l-0.14-0.691   l-0.154-0.466c0,0-0.127-0.604-0.381-1.146c0.033-0.52-0.159-1.179-0.159-1.179l-0.421-0.43c0,0-0.311-0.719-0.354-0.973   c-0.041-0.205-0.013-0.459-0.066-0.834c-0.041-0.254-0.269-0.687-0.31-0.937c-0.056-0.325-0.051-1.368-0.051-1.368l0.38-0.852   l0.396-0.409l0.879-0.163l0.624,0.271c0,0,0.088,0.652,0.741,1.143c0.354-0.048,0.336-0.18,0.336-0.18l0.022-0.49   c0,0-0.094-0.657-0.133-0.959c-0.041-0.303-0.184-0.247-0.159-0.866c0.021-0.619-0.153-1.032-0.106-1.45   c0.048-0.417-0.021-0.994,0.12-1.437c0.199-0.625,0.307-1.287,0.368-1.604c0.063-0.315,0.793-1.25,0.941-1.682   c0.15-0.431,0.45-1.234,0.482-1.753c0.032-0.517-0.114-0.836-0.236-1.742c-0.124-0.909-0.361-1.684-0.361-1.684   s-0.301-0.203-0.407-1.009c-0.109-0.809-0.343-1.196-0.343-1.196s-0.098-0.032-0.41-0.699c-0.492-0.644-0.448-0.65-0.807-1.268   c-0.355-0.625-2.105-2.91-2.775-3.174c-0.236-0.102-0.434,0.458-0.604-0.14c-0.325-0.755-0.767-1.005-0.767-1.005   s-0.466-0.425-0.463-0.736c0.006-0.571-0.166-0.555-0.261-1.252l-0.05-1.014l-0.206-0.859l0.134-0.684c0,0-0.032-0.939-0.25-0.854   c-0.518,0.203-0.896,0.389-0.896,0.389s-1.271-0.5-1.604-0.536c-0.244-0.027-1.063-0.257-1.134-0.024   c-0.091,0.323-0.002,0.207-0.106,0.502c-0.092,0.244-0.154,0.781-0.176,1.045c-0.021,0.257-0.05,0.885-0.041,1.026   c0.021,0.485,0.03,0.872,0.226,0.99c0.274,0.168,0.78-0.905,0.78-0.905s0.255-0.341,0.837-0.469   c0.523-0.116,1.178-0.293,1.178-0.293l0.063,0.438c0,0,0.346,0.756,0.355,0.973c0.01,0.166-0.115,1.091-0.103,1.257   c0.019,0.2-0.584,0.345-0.584,0.345l-0.789-0.159l-1.016-0.482l-0.081,0.722c-0.063,0.186-0.378,0.539-0.378,0.539l-0.704-0.525   l-0.271-0.362l-0.383-0.48l-0.164-0.555l-0.018-0.442l-0.056-0.403l-0.604-0.129l-0.563,0.166c0,0-0.221-0.567-0.382-0.479   c-0.122,0.065-0.428,1.167-0.428,1.167s-0.132,0.55-0.077,0.766c0.04,0.16,0.134,0.648,0.134,0.648s0.313,0.539-0.019,1.201   c-0.324,0.662-0.063,0.895-0.063,0.895c-0.038,0.259-0.151,0.428-0.301,0.544c-0.274,0.215-0.49,0.182-0.718,0.26   c-0.146,0.053-0.618-0.015-0.714,0.054c-0.344,0.242-0.504,0.937-0.566,1.142c-0.104,0.33,0.523,0.354,0.523,0.354l0.164,1.062   l0.728,0.034l0.068,2.167c0,0-0.122,1.049-0.575,1.411c-0.104,0.083-0.536,0.027-0.536,0.027l-0.854,0.027   c0,0,0.188,0.626,0.271,0.984c0.113,0.518,0.828-0.201,0.828-0.201s1.378,0.835,1.419,1.139c0.04,0.304,0.701,0.674,0.84,2.195   c0.09,1.008-0.464,1.027-0.396,3.072c0.068,2.044-0.095,2.009-0.345,3.108c-0.116,0.51-0.354,1.38-0.354,1.38l-0.677,2   c0,0-0.072,0.455,0.079,0.921c0.113,0.35,0.286,1.247,0.13,1.626c-0.428,1.031-0.75,1.973-0.75,1.973l-0.854,0.509   c0,0-0.705,0.128-0.959,0.574c-0.252,0.444-0.949,1.637-1.408,2.232c-0.214,0.275-0.55,1.273-0.55,1.273l-0.646,1.553   c0,0-0.836,1.203-1.188,1.538c-0.3,0.283-2.12,0.999-2.12,0.999s-1.646,1.749-2.025,2.007c-0.385,0.256-1.063,0.454-1.063,0.454   s-0.261-0.128-0.585,0.346c-0.087,0.127-0.146,0.597-0.146,0.597l-0.815,0.956l-0.442,0.061l-1.104-0.161   c0,0-0.285-0.008-0.227-0.325c0.063-0.314-0.262-0.559-0.327-0.753c-0.146-0.425,0.311-0.396,0.311-0.396l-0.09-0.653l-0.451-0.34   l-0.251-0.187c0,0-0.164-0.366-0.11-0.475c0.056-0.102,0.427-0.189,0.427-0.189s0.438-0.502,0.646-0.576   c0.17-0.063-0.042-0.219,0.329-0.579c0.208-0.202,0.404,0.484,0.883-0.473c0,0-0.146-0.707-0.253-0.854   c-0.075-0.104,0.298-0.607,0.089-0.678c-0.178-0.06-0.142-0.272-0.226-0.324c-0.22-0.137-1.001,0.268-1.001,0.268l-0.712,0.799   c0,0-0.497,0.17-0.885,0.429c-0.381,0.257,0,0,0,0l-0.502,0.612l-0.734,0.544c0,0,0.048,0.398,0,0.666   c-0.146,0.826,0.104,1.096,0.104,1.096s0.021,0.564,0.103,0.74c0.084,0.177,0.319,0.711,0.319,0.711s0.165,0.555-0.034,1.07   c-0.162,0.427-0.098,0.717-0.156,0.95c-0.063,0.231-0.366,0.624-0.503,0.826c-0.128,0.188-0.553,0.729-0.553,0.729l-0.325,0.663   c0,0-0.436,1.05-0.75,1.225c-0.145,0.076-0.487,0.837-0.66,1.11c-0.116,0.185-0.537,0.693-0.537,0.693l-0.354,0.402l-0.08,0.41   c0,0-0.094-0.027-0.053,0.272c0.041,0.305-0.388,0.81-0.388,0.81l0.093,0.342l0.514,0.463c0,0,0.09-0.23,0.303,0.537   c0.177,0.641,0.085,0.966,0.085,0.966s-0.607,1.015-0.688,1.246c-0.063,0.179-0.673,0.356-0.673,0.356l-1.083,0.322   c0,0-0.671-0.246-1.259,0.038c-0.588,0.285-1.272,0.261-1.272,0.261s-0.604-0.547-0.594-0.719c0.019-0.306,0.428-0.501,0.428-0.501   s-0.004-0.514-0.126-0.604c-0.206-0.153-0.529,0.068-1.039,0.316c-0.181,0.087-0.749,0.146-1.196,0.473   c-0.268,0.192-1.001,0.271-1.001,0.271s-2.358,0.368-3.061,0.727c-0.333,0.172-1.297,0.938-1.297,0.938l-0.485,0.271   c0,0-0.325-0.093-0.929,0.095c-0.602,0.186-0.53-0.279-1.202,0.118c-0.476,0.283-2.113,0.688-2.113,0.688s-0.476,0.503-0.622,0.396   c-0.094-0.063,0.051-0.121-0.313-0.313c-0.294-0.149,0.093-0.61,0.029-0.805c-0.023-0.063-0.253-0.123-0.253-0.123   c-0.41-0.072-0.282,0.097-0.771,0.162c-0.438,0.06-1.35,0.463-1.35,0.463l-0.273-0.025c0,0-0.48,0.343-0.646,0.29   c-0.078-0.021,0.021,0.313-0.229,0.479c-0.383,0.257-0.419,0.313-0.419,0.313L405.041,186.319z"
   id="path80"
   style="fill:#000000;stroke-width:0.99999998;stroke-miterlimit:4;stroke-dasharray:none" />
	<path
   stroke="#FFFFFF"
   stroke-width="0.5"
   d="M405.479,199.747c0.27-0.346,0.337-1.383,0.337-1.383l-0.646-0.116l-0.341,0.56   C404.83,198.808,405.214,200.091,405.479,199.747z"
   id="path82"
   style="fill:#000000;stroke-width:0.99999998;stroke-miterlimit:4;stroke-dasharray:none" />
	<path
   stroke="#FFFFFF"
   stroke-width="0.5"
   d="M420.615,194.14l0.413,0.156l0.63-0.201c0,0,0.289-0.533,0.353-0.713   c0.033-0.093-0.137-0.605-0.093-0.695c0.045-0.1,0.459-0.816,0.373-0.896c-0.052-0.047-0.255,0.235-0.368,0.271   c-0.372,0.112-0.59,0.498-0.715,0.724c-0.107,0.188-0.563,0.825-0.563,0.825L420.615,194.14z"
   id="path84"
   style="fill:#000000;stroke-width:0.99999998;stroke-miterlimit:4;stroke-dasharray:none" />
	<path
   stroke="#FFFFFF"
   stroke-width="0.5"
   d="M402.116,204.962l1.377-0.497c0.09-0.043,0.848-0.309,1.065-0.102   c0.136,0.125-0.146,0.577,0.016,0.754c0.131,0.149,0.109,0.396,0.249,0.563c0.204,0.246,0.3,0.918,0.479,1.154   c0.384,0.504,0.417,1.516,0.438,1.54c0.397,0.663,1.522,0.276,1.522,0.276l0.354,0.266l0.541,0.241c0,0,0.583-0.08,1.137,0.149   c0.553,0.232,1.021,0.526,1.021,0.526s-0.007-1.377,0.063-1.829c0.044-0.281,0.301-1.105,0.301-1.105l0.653-1.51l0.336-0.843   c0,0,0.941-1.048,1.237-1.19c0.292-0.143,1.333-0.594,1.333-0.594l0.813-0.187c0,0,0.396,0.108,0.921,0.142   c0.526,0.032,0.957,0.404,0.957,0.404l0.413,0.387c0,0,0.421,0.521,0.871,0.771c0.549-0.607,0.187-0.766,0.263-1.062   c0.034-0.12,0.276-0.252,0.34-0.563c0.063-0.315,0.191-0.926,0.321-1.211c0.104-0.23,0.373-0.672,0.543-0.858   c0.098-0.104,0.314-0.28,0.415-0.38c0.206-0.197,0.792-0.816,0.792-0.816l0.813-0.763l0.429-0.426l-0.605-0.81l-0.641-0.398   l-0.449-0.648c-0.288-0.576,0.438-0.851,0.438-0.851l0.136-0.531l-0.642-0.116c0,0-0.279,0.241-0.614,0.082   c-0.337-0.16-0.337-0.16-0.337-0.16s-0.504-0.035-0.655-0.104c-0.231-0.109-0.77-0.693-0.77-0.693l-0.658,0.135l-0.442,0.063   l-1.088-0.029l-0.714,0.721l-1.848,0.341l-0.187,0.646l0.041,0.971c0,0,0.052,0.768-0.844,1.095   c-0.896,0.325-1.452,0.299-1.452,0.299l-0.615,0.083l-1.045-0.781c0,0,0.047-0.417-0.358-0.361c-0.41,0.06-0.82,0.11-0.82,0.11   s-0.765,0.517-0.723,0.814c0.041,0.307,0.095,0.706,0.146,1.108c0.056,0.403-0.729,1.539-0.729,1.539l-0.346,0.562l-1.157,0.672   c0,0-0.19,0.129-0.563,0.485c-0.369,0.355-0.649,0.683-0.649,0.683l-0.234,0.467l-0.841,0.729L402.116,204.962z"
   id="path86"
   style="fill:#000000;stroke-width:0.99999998;stroke-miterlimit:4;stroke-dasharray:none" />
	<path
   stroke="#FFFFFF"
   stroke-width="0.5"
   d="M383.552,208.117l0.287,0.575c0,0,0.491,0.552,0.646,0.119   c0.146-0.435,0.036-1.236,0.036-1.236s0.65-0.682,0.508-0.893c-0.146-0.211-1.023,0.14-1.023,0.14l-0.418,0.774L383.552,208.117z"
   id="path88"
   style="fill:#000000;stroke-width:0.99999998;stroke-miterlimit:4;stroke-dasharray:none" />
	<path
   stroke="#FFFFFF"
   stroke-width="0.5"
   d="M380.603,210.396l-0.521,0.285c0,0-0.405,0.246-0.438,0.387   c-0.029,0.158,0.229,0.481,0.229,0.604c0,0.15,0.062,0.226,0.062,0.226l0.196,0.01l0.372-0.533l0.011-0.204l0.055-0.485   l0.294-0.271c0,0,0.021-0.243-0.04-0.262C380.739,210.124,380.603,210.396,380.603,210.396z"
   id="path90"
   style="fill:#000000;stroke-width:0.99999998;stroke-miterlimit:4;stroke-dasharray:none" />
	<path
   stroke="#FFFFFF"
   stroke-width="0.5"
   d="M388.429,216.552c0.156,0.086,0.718-0.097,0.718-0.097s0.338,0.158,0.385-0.258   c0.049-0.419,0.024,0.2,0.049-0.419c0.021-0.617,0.021-0.617,0.021-0.617l0.123-0.635l-0.848-0.092c0,0-0.328-0.008-0.41,0.058   c-0.239,0.182-0.479,1.093-0.479,1.093S388.193,216.424,388.429,216.552z"
   id="path92"
   style="fill:#000000;stroke-width:0.99999998;stroke-miterlimit:4;stroke-dasharray:none" />
	<path
   stroke="#FFFFFF"
   stroke-width="0.5"
   d="M387.472,212.367l0.602-0.188l0.621-0.805l0.741,0.104c0,0,0.063-0.336,0.45,0.229   c0.394,0.563-0.313,0.421,0.146,1.046c0.418,0.571,0.401-0.074,0.401-0.074s0.353,0.262,0.591-0.285   c0.236-0.545,0.154-1.147,0.154-1.147l-0.792-1.335c-0.438-0.146-0.678,0.508-0.678,0.508l-0.287-0.577l-0.39-0.944l0.45-0.91   l0.521,0.029l0.479,0.448l0.425,0.044c0,0,0.375,0.465,0.519,0.75c0.146,0.29,0.157,0.393,0.403,0.665   c0.247,0.271,0.404,0.665,0.404,0.665l0.471,1.167l0.055,0.405c0,0-2.644,1.777-1.511,1.628c0.863-0.117,1.218,0.056,1.218,0.056   l-0.709,0.918l-0.329,0.661l-0.894,0.325l-1.093,1.177c0,0,0.014,0.103,0.105,0.81c0.1,0.705,0.027,0.201,0.1,0.705   c0.065,0.506,0.996,1.199,0.996,1.199s-0.025-0.199,0.173,0.488c0.194,0.689-0.058,1.141-0.058,1.141l0.122,0.905l-1.056,0.688   l0.352,0.994l0.961,0.603l1.249,0.229c0,0,0.668,0.248,0.947,0.004c0.281-0.242,0.447-0.191,0.447-0.191l-0.836-1.686   c0,0-0.312-1.088,0.271-1.969c0.337-0.513,0.092-0.385,1.028-0.406c0.936-0.022,0.459,1.209,0.738,0.966   c0.276-0.241-0.521,0.671-0.521,0.671s0.387,0.64,0.581,0.785c0.536,0.408-0.301,1.771-0.301,1.771s-0.754,1.237-0.421,1.392   c0.653-0.155,1.783-0.752,2.551-2.146c0.322-0.589-0.288-0.627-0.288-0.627l0.075-0.939c0,0,0.392-0.344,0.754-0.438   c0.521-0.138,0.561,0.655,0.561,0.655s0.795,0.356,0.939-0.063c0.409-1.173,0.337-0.512,0.337-0.512l0.377-0.719l-0.229-1.633   l0.107-1.746c0,0,0.229-1.787,0.188-2.092c-0.042-0.303,0.326-1.533,0.488-1.863c0.162-0.329,0.583-1.1,0.927-1.655   c0.341-0.562,0.767-1.244,1.054-2.207c0.286-0.963,0.748-0.967,0.748-0.967s0.016-0.692-0.333-0.955   c-0.35-0.263-0.396-1.041-0.396-1.041l-0.67-0.813c0,0,0.438-0.899,0.132-0.86c-0.311,0.043-0.311,0.043-0.311,0.043l-1.048,0.257   l-0.412-0.545l0.209-0.467l0.49-1.359l-0.814-1.021c0,0-0.652-0.342-1.269-0.356c-0.218-0.01-0.753,0.437-0.753,0.437l-0.284,0.609   l-1.146,0.313c0,0-0.996,0.086-1.282-0.491c-0.286-0.575-0.602-0.918-0.602-0.918l-0.788-0.822l-0.612-1.051l-0.766,0.075   c-0.764,0.519-1.566,0.729-1.566,0.729s0.188-0.127,0.096,0.707c-0.096,0.835-0.096,0.835-0.096,0.835s-0.896,0.327-1.268,0.688   c-0.368,0.355-0.3,0.86-0.3,0.86l-0.574,0.388l-0.702,0.197l-0.939,0.744c0.185,0.592-0.067,1.037-0.067,1.037l-0.717,0.1   l-0.91,0.226l-0.138,0.532l0.066,0.504c0,0-0.089,0.113,0.156,0.391c0.247,0.273,0.247,0.273,0.247,0.273l0.172,0.49l-0.506,0.892   c0.596,0.534,1.086,1.084,1.086,1.084c0.042,0.306-0.041-0.304,0.042,0.306c0.08,0.604,0.08,0.604,0.08,0.604   s-0.345,0.938-0.123,1.109C386.555,212.979,387.472,212.367,387.472,212.367z"
   id="path94"
   style="fill:#000000;stroke-width:0.99999998;stroke-miterlimit:4;stroke-dasharray:none" />
	<path
   stroke="#FFFFFF"
   stroke-width="0.5"
   d="M407.03,180.272l0.571-0.078c0,0,0.255-0.133,0.31-0.205   c0.12-0.162,0.313-0.591,0.228-0.771c-0.063-0.139-0.355-0.198-0.604-0.163c-0.246,0.032-0.871,0.135-0.95,0.376   C406.506,179.656,407.03,180.272,407.03,180.272z"
   id="path96"
   style="fill:#000000;stroke-width:0.99999998;stroke-miterlimit:4;stroke-dasharray:none" />
	<path
   stroke="#FFFFFF"
   stroke-width="0.5"
   d="M405.664,181.278c0.071,0.142,0.604,0.188,0.604,0.188s0.547-0.243,0.596-0.42   c0.053-0.188-0.321-0.71-0.321-0.71l-0.574,0.077C405.964,180.417,405.563,181.076,405.664,181.278z"
   id="path98"
   style="fill:#000000;stroke-width:0.99999998;stroke-miterlimit:4;stroke-dasharray:none" />
	<path
   stroke="#FFFFFF"
   stroke-width="0.5"
   d="M441.326,159.596c-0.165,0.375-0.025,0.655,0.146,0.778   c0.315,0.219,1.177-1.002,1.177-1.002l0.6-0.571c0,0,0.854-1.002,0.453-1.305c-0.13-0.098-0.735,0.233-0.735,0.233   s-0.355-0.292-0.286-0.449c0.179-0.379,0.527-1.832,0.155-1.842c-0.543-0.015-0.97,1.153-0.97,1.153l-0.779,0.906l-0.225,0.34   c0,0-0.087,0.738,0.021,0.841c0.179,0.166,0.506-0.233,0.651-0.178C441.709,158.566,441.521,159.152,441.326,159.596z"
   id="path100"
   style="fill:#000000;stroke-width:0.99999998;stroke-miterlimit:4;stroke-dasharray:none" />
	<path
   stroke="#FFFFFF"
   stroke-width="0.5"
   d="M398.26,172.354l0.424,0.045c0,0,0.402-0.408,0.345-0.56   c-0.071-0.18-0.762-0.205-0.762-0.205s-0.364,0.229-0.364,0.356C397.897,172.118,398.26,172.354,398.26,172.354z"
   id="path102"
   style="fill:#000000;stroke-width:0.99999998;stroke-miterlimit:4;stroke-dasharray:none" />
	<path
   stroke="#FFFFFF"
   stroke-width="0.5"
   d="M453.847,186.349c-0.063,0.188-0.131,0.373-0.021,0.492   c0.104,0.118,0.408,0.346,0.408,0.346s0.743-0.146,0.762-0.371c0.015-0.224-0.261-0.586-0.261-0.586s0.029-0.095-0.245-0.145   c-0.278-0.051-0.396,0.012-0.527,0.115C453.882,186.265,453.847,186.349,453.847,186.349z"
   id="path104"
   style="fill:#000000;stroke-width:0.99999998;stroke-miterlimit:4;stroke-dasharray:none" />
	<path
   stroke="#FFFFFF"
   stroke-width="0.5"
   d="M454.044,189.679c-0.025,0.075-0.05,0.148-0.01,0.195   c0.042,0.049,0.153,0.141,0.153,0.141s0.282-0.057,0.285-0.146c0.01-0.093-0.1-0.234-0.1-0.234s0.012-0.036-0.092-0.058   c-0.105-0.021-0.151,0.002-0.2,0.043C454.057,189.646,454.044,189.679,454.044,189.679z"
   id="path106"
   style="fill:#000000;stroke-width:0.99999998;stroke-miterlimit:4;stroke-dasharray:none" />
	<path
   stroke="#FFFFFF"
   stroke-width="0.5"
   d="M383.67,205.269c0.229-0.008,0.654-0.679,0.654-0.679s-0.182-0.671-0.365-0.71   c-0.159-0.036-0.494,0.432-0.494,0.432l-0.322,0.488C383.143,204.8,383.499,205.271,383.67,205.269z"
   id="path108"
   style="fill:#000000;stroke-width:0.99999998;stroke-miterlimit:4;stroke-dasharray:none" />
	<path
   stroke="#FFFFFF"
   stroke-width="0.5"
   d="M382.411,207.862c-0.212,0.141-0.414,0.709-0.414,0.709s-0.141,0.617,0.026,0.539   c0.175-0.076,0.313-0.295,0.488-0.621l0.029-0.356C382.545,208.132,382.568,207.762,382.411,207.862z"
   id="path110"
   style="fill:#000000;stroke-width:0.99999998;stroke-miterlimit:4;stroke-dasharray:none" />
	<path
   stroke="#FFFFFF"
   stroke-width="0.5"
   d="M395.975,227.97c-0.13,0.403-0.443,0.879-0.324,1.188   c0.117,0.308-0.165,1.054-0.01,1.274c0.159,0.221,0.278,0.527,0.278,0.527l-0.302,0.327c0,0,0.302,0.593,0.486,0.521   c0.188-0.07,0.031,0.271,0.188-0.07c0.153-0.342,0.096,0.246,0.153-0.342c0.059-0.588,0.165-1.054,0.165-1.054   s-0.061-0.332-0.092-0.603c-0.031-0.271,0.073-0.172,0.138-0.76c0.058-0.588,0.317-0.83,0.226-1.078   c-0.095-0.24-0.114-0.657-0.34-0.506c-0.226,0.16-0.692-0.304-0.621-0.113C395.995,227.468,395.975,227.97,395.975,227.97z"
   id="path112"
   style="fill:#000000;stroke-width:0.99999998;stroke-miterlimit:4;stroke-dasharray:none" />
	<path
   stroke="#FFFFFF"
   stroke-width="0.5"
   d="M392.475,232.263c0.615,0.051,0.058,0.395,0.404,0.479   c0.354,0.085,0.336,0.487,0.842,0.22c0.504-0.271,0.645-0.754,0.58-1.21c-0.063-0.459,0.063-0.543-0.104-0.785   c-0.167-0.243-0.167-0.243-0.167-0.243l-0.625-0.115l-0.324,0.11l-0.375,0.716l-0.164,0.289L392.475,232.263z"
   id="path114"
   style="fill:#000000;stroke-width:0.99999998;stroke-miterlimit:4;stroke-dasharray:none" />
	<path
   stroke="#FFFFFF"
   stroke-width="0.5"
   d="M451.87,123.006l0.821,0.066l0.603,0.45l1.01,0.13l0.991-0.668l-0.129-0.959   c0,0-0.29-0.138-0.414-0.387c-0.124-0.249-0.743-0.165-0.743-0.165l-0.478-0.202c0,0-0.271,0.036-0.58-0.275   c-0.313-0.313-0.538-0.639-0.538-0.639l-0.566-0.188c0,0,0.146-0.286-0.479-0.202c-0.618,0.084-0.908-0.054-1.267-0.006   c-0.354,0.048,0.18-0.024-0.354,0.048c-0.531,0.072-0.91-0.053-0.91-0.053l-0.489-0.289l-0.271-0.673c0,0,0.152-0.198,0.499-0.956   c0.349-0.758,0.886-1.452,1.151-1.489c0.267-0.036,0.998,0.042,0.998,0.042l0.438,0.562l0.714,0.613l0.771,0.339l0.335,0.488   l0.831-1.179c0,0,0.26-0.746,0.514-0.868c0.255-0.124,0.957-0.931,0.957-0.931l1.588-0.926c0,0,0.986-0.045,1.263,0.006   c0.277,0.051,2.882,1.294,2.882,1.294s0.567,0.19,0.937,0.229c0.366,0.04,1.1,0.118,1.313,0.354   c0.216,0.237,1.121,0.292,1.121,0.292s1.313,0.354,1.771,0.383c0.454,0.025,1.6,0.492,1.6,0.492l0.354,0.574   c0,0,0.04-1.692,0.046-2.314c0.005-0.622-0.119-2.204,0.997-3.953c1.112-1.75,2.188-3.139,2.839-3.671   c0.646-0.531,1.889-0.7,1.889-0.7l1.938-0.353l1.241-0.791c0,0,0.88-0.828,1.273-1.237c0.396-0.409,0.615-0.794,1.146-0.866   c0.529-0.072,1.232-0.877,1.232-0.877s0.406-0.322,0.461-0.596c0.052-0.274,0.094-0.635,0.094-0.635s0.359-0.67,0.009-0.622   c-0.354,0.049-0.854,0.383-0.854,0.383l-0.271,0.657l-0.537,0.694c0,0-0.646-0.089-1.062-0.478   c-0.413-0.389-0.411-0.389-0.411-0.389l-0.6-1.072c0,0,0.762-0.37-0.082-0.61c-0.845-0.241-0.845-0.241-0.845-0.241   s-0.731-0.078-0.803-0.601c-0.07-0.524-0.134-0.959-0.134-0.959s-0.031-0.263-0.025-0.885c0.005-0.622,0.034-1.07,0.075-1.431   c0.04-0.361,0.007-0.623,0.146-0.908c0.141-0.286-0.033-0.528-0.033-0.528l0.034-0.566c0,0,0.146-0.56-0.117-0.696   c-0.187-0.099-0.633,0.916-0.633,0.916s-0.688,0.521-0.642,0.867c0.048,0.35-0.6,1.59-0.6,1.59s0.07,0.524-0.413,0.944   c-0.48,0.42-0.596,0.258-1.104,0.504c-0.509,0.247-1.53,0.031-1.53,0.031s-0.304,0.148-0.517-0.089   c-0.213-0.237-0.449-0.649-0.449-0.649l-0.742-0.166c0,0-0.605,0.172-1.771,0.241c-1.162,0.069-3.065-0.649-3.743-1.001   c-0.681-0.352-3.744-2.332-3.744-2.332s-1.992-0.918-3.21-1.907c-1.218-0.989-2.021-1.59-2.333-1.902   c-0.313-0.313-0.577-1.396-0.577-1.396l-0.579-0.276l-0.515-0.462l-0.714,0.719l0.146,0.424l-0.52,0.16l-0.559-0.104l-0.296,0.484   c0,0-0.089,0.012,0.05,0.35c0.138,0.336,0.062,0.437,0.193,0.772c0.135,0.337,0.318,1.022,0.318,1.022l-0.097,0.633   c0,0,0.688,1.063,0.926,1.474c0.229,0.412,1.038,2.345,1.264,4.001c0.224,1.655,0.078,2.563-0.018,3.199   c-0.098,0.634-0.235,2.251-0.235,2.251l-0.636,0.618l-0.125,1.082c0,0,0.764,0.429,0.384,0.837   c-0.775,0.835,0.179,0.786-0.384,2.25c-0.379,0.981-1.546,1.476-1.546,1.476l-0.618,0.083c0,0,0.238-0.21-0.313-0.313   c-0.558-0.102-0.777-0.427-1.135-0.379c-0.354,0.048-0.846-0.239-0.846-0.239s-0.49-0.288-0.632-0.003   c-0.146,0.286-0.654,1.155-0.654,1.155l0.237,0.412l0.478,0.201l0.159,0.511l0.384,0.835l0.083,0.61c0,0-0.017,0.536-0.512,0.869   c-0.496,0.334-0.462,0.595-0.993,0.667c-0.531,0.071,0.194-0.561-0.531,0.071c-0.726,0.631-0.306,0.396-0.726,0.631   c-0.421,0.235-0.633-0.002-0.738,0.545c-0.104,0.546-0.4,1.029-0.188,1.268c0.215,0.238,0.152,1.134,0.2,1.483   c0.048,0.349-0.398,1.03-0.398,1.03l1.388,0.255l1.406,1.053c0,0,0.295-0.484,0.437,0.562c0.146,1.046-0.169,2.064-0.169,2.064   s0.543,0.016,0.295,0.849s-0.199,1.182-0.199,1.182s-0.131,0.373,0.736,0.788c0.868,0.415,0.868,0.415,0.868,0.415l0.688-0.271   c0,0,0.218-0.385,0.535-0.694c0.316-0.31,0.997-1.29,0.997-1.29s-0.173-0.598-0.143-1.046c0.029-0.449,0.248-0.833,0.248-0.833   L451.87,123.006z"
   id="path116"
   style="fill:#000000;stroke-width:0.99999998;stroke-miterlimit:4;stroke-dasharray:none" />
	<path
   stroke="#FFFFFF"
   stroke-width="0.5"
   d="M449.094,93.724c0.473-0.324,0.104-0.17,0.473-0.324   c0.365-0.153,0.574-0.582,0.146-0.873s-1.267-1.137-1.229-0.341C448.517,92.982,449.094,93.724,449.094,93.724z"
   id="path118"
   style="fill:#000000;stroke-width:0.99999998;stroke-miterlimit:4;stroke-dasharray:none" />
	<path
   stroke="#FFFFFF"
   stroke-width="0.5"
   d="M448.744,91.539c0.326-0.862-0.105-1.065-0.374-1.082   c-0.271-0.017-0.046-0.621-0.271-0.017c-0.221,0.604,0.29,0.987,0.29,0.987L448.744,91.539z"
   id="path120"
   style="fill:#000000;stroke-width:0.99999998;stroke-miterlimit:4;stroke-dasharray:none" />
	<path
   stroke="#FFFFFF"
   stroke-width="0.5"
   d="M455.976,191.392c-0.021,0.072-0.05,0.146-0.009,0.194   c0.042,0.048,0.157,0.14,0.157,0.14s0.281-0.058,0.287-0.146c0.005-0.091-0.104-0.233-0.104-0.233s0.016-0.035-0.094-0.059   c-0.104-0.021-0.146,0.002-0.197,0.045C455.99,191.354,455.976,191.392,455.976,191.392z"
   id="path122"
   style="fill:#000000;stroke-width:0.99999998;stroke-miterlimit:4;stroke-dasharray:none" />
	<path
   stroke="#FFFFFF"
   stroke-width="0.5"
   d="M386.482,221.667c0.278-0.266,0.758-0.611,0.778-0.768   c0.024-0.152,0.585-0.649,0.541-0.744c-0.047-0.094-0.021-0.245-0.021-0.245l0.398-0.261c0,0-0.016-0.276-0.21-0.193   c-0.19,0.084,0.083-0.15-0.19,0.084c-0.278,0.232,0.019-0.121-0.278,0.232s-0.585,0.647-0.585,0.647s-0.09,0.185-0.172,0.331   c-0.084,0.146-0.141,0.117-0.438,0.475c-0.297,0.354-0.631,0.56-0.646,0.68c-0.021,0.121-0.176,0.359,0.089,0.222   c0.263-0.146,0.478,0.021,0.491-0.069C386.253,221.965,386.482,221.667,386.482,221.667z"
   id="path124"
   style="fill:#000000;stroke-width:0.99999998;stroke-miterlimit:4;stroke-dasharray:none" />
	<path
   stroke="#FFFFFF"
   stroke-width="0.5"
   d="M386.958,256.644c-0.263,0.033-0.404,0.707-0.404,0.707s-0.042,0.793,0.181,0.815   c0.222,0.021,0.36-0.183,0.528-0.521l-0.05-0.5C387.213,257.146,387.153,256.619,386.958,256.644z"
   id="path126"
   style="fill:#000000;stroke-width:0.99999998;stroke-miterlimit:4;stroke-dasharray:none" />
	<path
   stroke="#FFFFFF"
   stroke-width="0.5"
   d="M388.389,255.214c0.273-0.322,0.75-0.64,0.76-0.972   c0.006-0.329,0.557-0.909,0.49-1.177c-0.063-0.269-0.056-0.598-0.056-0.598s-0.113,0.399-0.392,0.924   c-0.279,0.521-0.485-0.615-0.485-0.615s-0.074,0.33-0.146,0.591c-0.068,0.263-0.135,0.13-0.41,0.647   c-0.278,0.521-0.615,0.646-0.622,0.907c-0.01,0.265-0.147,0.654,0.122,0.599c0.27-0.061,0.521,0.545,0.523,0.349   C388.178,255.671,388.389,255.214,388.389,255.214z"
   id="path128"
   style="fill:#000000;stroke-width:0.99999998;stroke-miterlimit:4;stroke-dasharray:none" />
	<path
   stroke="#FFFFFF"
   stroke-width="0.5"
   d="M378.476,269.201c-0.202,0.175-0.229,0.433-0.459,0.602   c-0.104,0.077-0.44,0.058-0.521,0.142c-0.04,0.043-0.539-0.125-0.595-0.137c-1.233-0.289-0.18,0.367-0.189,0.438   c-0.013,0.057,0.844,0.216,0.813,0.273c-0.053,0.094-0.367,0.563-0.444,0.66c-0.271,0.344-0.673,0.264-0.669,0.52   c0.006,0.376-0.087,0.813-0.087,0.813l-0.539,0.129c0,0-0.108,0.903,0.135,0.969c0.24,0.068-0.157,0.332,0.24,0.068   c0.396-0.259-0.074,0.352,0.396-0.259c0.478-0.615,0.907-1.053,0.907-1.053s0.175-0.419,0.331-0.744   c0.156-0.329,0.197-0.134,0.67-0.741c0.472-0.613,0.911-0.678,0.987-1.029c0.075-0.352,0.007-0.836,0.007-0.836   c-0.341-0.004-0.491-0.89-0.548-0.623C378.851,268.653,378.476,269.201,378.476,269.201z"
   id="path130"
   style="fill:#000000;stroke-width:0.99999998;stroke-miterlimit:4;stroke-dasharray:none" />
	<path
   stroke="#FFFFFF"
   stroke-width="0.5"
   d="M348.813,286.985c-0.13,0.404-1.572,0.451-1.452,0.761   c0.117,0.307-0.165,1.053-0.01,1.272c0.159,0.225,0.976-0.092,0.976-0.092s0.542-0.199,0.51-0.472   c-0.034-0.271,0.16-0.286,0.294-0.709c0.178-0.563,1.207-2.226,0.992-2.285c-0.252-0.069,0.227-0.153,0,0   c-0.229,0.157-0.983,0.771-0.911,0.955C349.278,286.604,348.813,286.985,348.813,286.985z"
   id="path132"
   style="fill:#000000;stroke-width:0.99999998;stroke-miterlimit:4;stroke-dasharray:none" />
	<path
   stroke="#FFFFFF"
   stroke-width="0.5"
   d="M343.563,290.692c0.613,0.052,0.698,0.498,1.053,0.584   c0.349,0.086,0.336,0.488,0.841,0.221c0.505-0.271,0.642-0.753,0.579-1.21c-0.063-0.458,0.063-0.542-0.105-0.784   c-0.168-0.245-0.168-0.245-0.168-0.245l-0.626-0.114c0,0-0.768-0.47-1.032-0.391c-0.24,0.075-0.596,0.827-0.596,0.827   s-0.306,0.478-0.286,0.653C343.235,290.375,343.563,290.692,343.563,290.692z"
   id="path134"
   style="fill:#000000;stroke-width:0.99999998;stroke-miterlimit:4;stroke-dasharray:none" />
	<path
   stroke="#FFFFFF"
   stroke-width="0.5"
   d="M388.938,170.887c0.192,0.05,0.193,0.203,0.64,0.013   c0.438-0.191,0.235-0.459,0.235-0.459s0.063-0.311,0.017-0.396c-0.041-0.07-0.29-0.157-0.29-0.157s-0.202-0.222-0.296-0.224   c-0.11-0.002-0.367,0.247-0.367,0.247l-0.192,0.553C388.715,170.72,388.815,170.855,388.938,170.887z"
   id="path136"
   style="fill:#000000;stroke-width:0.99999998;stroke-miterlimit:4;stroke-dasharray:none" />
</g>
</svg>